G04 PROTEUS RS274X GERBER FILE*
%FSLAX45Y45*%
%MOMM*%
G01*
%ADD31C,0.203200*%
%ADD62C,2.794000*%
%ADD63C,0.389040*%
%ADD64C,0.050000*%
%ADD65C,1.440180*%
%ADD66C,0.385000*%
%ADD67C,0.508000*%
%ADD68C,0.078740*%
%ADD69C,0.558800*%
%ADD74C,0.111660*%
%ADD75C,0.502920*%
%ADD76C,0.348330*%
%ADD77C,0.085340*%
%ADD78C,0.812800*%
%ADD79C,0.316990*%
%ADD80C,1.219200*%
%ADD81C,0.469390*%
%ADD82C,0.260770*%
%ADD83C,0.164590*%
%ADD84C,0.396240*%
%ADD85C,0.141660*%
%ADD86C,0.548640*%
%ADD87C,0.251660*%
%ADD10C,0.254000*%
%ADD88C,0.100750*%
%ADD89C,0.208280*%
%ADD90C,0.066040*%
%ADD39C,0.100000*%
%ADD91C,0.720000*%
%ADD92C,1.642000*%
D31*
X-9129250Y+3750750D02*
X-7962120Y+3750750D01*
X-7962120Y+4449250D01*
X-9129250Y+4449250D01*
X-9129250Y+3750750D01*
D62*
X-8780000Y+4100000D02*
X-8780000Y+4100000D01*
D63*
X-8856919Y+4216713D02*
X-8856919Y+4022191D01*
X-8818015Y+3983287D01*
X-8662398Y+3983287D01*
X-8623494Y+4022191D01*
X-8623494Y+4216713D01*
X-8506781Y+4177809D02*
X-8467877Y+4216713D01*
X-8351164Y+4216713D01*
X-8312260Y+4177809D01*
X-8312260Y+4138904D01*
X-8351164Y+4100000D01*
X-8467877Y+4100000D01*
X-8506781Y+4061096D01*
X-8506781Y+3983287D01*
X-8312260Y+3983287D01*
D31*
X-9460000Y-140000D02*
X-990000Y-140000D01*
X-990000Y+5530000D01*
X-9460000Y+5530000D01*
X-9460000Y-140000D01*
D64*
X-7760000Y+2885000D02*
X-6610000Y+2885000D01*
X-6610000Y+3815000D01*
X-7760000Y+3815000D01*
X-7760000Y+2885000D01*
X-7185000Y+3400000D02*
X-7185000Y+3300000D01*
X-7135000Y+3350000D02*
X-7235000Y+3350000D01*
D65*
X-7500000Y+3350000D02*
X-7500000Y+3350000D01*
D66*
X-7262000Y+3273000D02*
X-7300500Y+3234500D01*
X-7416000Y+3234500D01*
X-7493000Y+3311500D01*
X-7493000Y+3388500D01*
X-7416000Y+3465500D01*
X-7300500Y+3465500D01*
X-7262000Y+3427000D01*
X-7146500Y+3427000D02*
X-7108000Y+3465500D01*
X-6992500Y+3465500D01*
X-6954000Y+3427000D01*
X-6954000Y+3388500D01*
X-6992500Y+3350000D01*
X-6954000Y+3311500D01*
X-6954000Y+3273000D01*
X-6992500Y+3234500D01*
X-7108000Y+3234500D01*
X-7146500Y+3273000D01*
X-7069500Y+3350000D02*
X-6992500Y+3350000D01*
D64*
X-7760000Y+3785000D02*
X-6610000Y+3785000D01*
X-6610000Y+4715000D01*
X-7760000Y+4715000D01*
X-7760000Y+3785000D01*
X-7185000Y+4300000D02*
X-7185000Y+4200000D01*
X-7135000Y+4250000D02*
X-7235000Y+4250000D01*
D65*
X-7500000Y+4250000D02*
X-7500000Y+4250000D01*
D66*
X-7262000Y+4173000D02*
X-7300500Y+4134500D01*
X-7416000Y+4134500D01*
X-7493000Y+4211500D01*
X-7493000Y+4288500D01*
X-7416000Y+4365500D01*
X-7300500Y+4365500D01*
X-7262000Y+4327000D01*
X-6954000Y+4211500D02*
X-7185000Y+4211500D01*
X-7031000Y+4365500D01*
X-7031000Y+4134500D01*
D31*
X-6174160Y+4406340D02*
X-5859200Y+4406340D01*
X-5859200Y+4548580D01*
X-6174160Y+4548580D01*
X-6174160Y+4406340D01*
D67*
X-6123360Y+4480000D02*
X-6123360Y+4480000D01*
D68*
X-6111168Y+4453838D02*
X-6111168Y+4501082D01*
X-6071798Y+4501082D01*
X-6063924Y+4493208D01*
X-6063924Y+4485334D01*
X-6071798Y+4477460D01*
X-6111168Y+4477460D01*
X-6071798Y+4477460D02*
X-6063924Y+4469586D01*
X-6063924Y+4453838D01*
X-6032428Y+4485334D02*
X-6016680Y+4501082D01*
X-6016680Y+4453838D01*
X-5977310Y+4501082D02*
X-5937940Y+4501082D01*
X-5937940Y+4493208D01*
X-5977310Y+4453838D01*
D64*
X-6165000Y+4035000D02*
X-5835000Y+4035000D01*
X-5835000Y+4225000D01*
X-6165000Y+4225000D01*
X-6165000Y+4035000D01*
X-6000000Y+4180000D02*
X-6000000Y+4080000D01*
X-5950000Y+4130000D02*
X-6050000Y+4130000D01*
D69*
X-6090000Y+4130000D02*
X-6090000Y+4130000D01*
D74*
X-6089332Y+4096500D02*
X-6089332Y+4163499D01*
X-6044666Y+4163499D01*
X-6022333Y+4141166D01*
X-6022333Y+4118833D01*
X-6044666Y+4096500D01*
X-6089332Y+4096500D01*
X-5988834Y+4152333D02*
X-5977667Y+4163499D01*
X-5944168Y+4163499D01*
X-5933001Y+4152333D01*
X-5933001Y+4141166D01*
X-5944168Y+4130000D01*
X-5977667Y+4130000D01*
X-5988834Y+4118833D01*
X-5988834Y+4096500D01*
X-5933001Y+4096500D01*
D64*
X-5590000Y+2340000D02*
X-4550000Y+2340000D01*
X-4550000Y+3380000D01*
X-5590000Y+3380000D01*
X-5590000Y+2340000D01*
X-5070000Y+2910000D02*
X-5070000Y+2810000D01*
X-5020000Y+2860000D02*
X-5120000Y+2860000D01*
D75*
X-5490000Y+3140000D02*
X-5490000Y+3140000D01*
D76*
X-5348666Y+2964500D02*
X-5348666Y+2790333D01*
X-5313833Y+2755500D01*
X-5174500Y+2755500D01*
X-5139667Y+2790333D01*
X-5139667Y+2964500D01*
X-5000334Y+2894833D02*
X-4930667Y+2964500D01*
X-4930667Y+2755500D01*
D31*
X-5773660Y+2635840D02*
X-5631420Y+2635840D01*
X-5631420Y+2950800D01*
X-5773660Y+2950800D01*
X-5773660Y+2635840D01*
D67*
X-5700000Y+2900000D02*
X-5700000Y+2900000D01*
D77*
X-5685471Y+2776251D02*
X-5676936Y+2767716D01*
X-5676936Y+2742113D01*
X-5694005Y+2725045D01*
X-5711074Y+2725045D01*
X-5728143Y+2742113D01*
X-5728143Y+2767716D01*
X-5719608Y+2776251D01*
X-5719608Y+2801854D02*
X-5728143Y+2810388D01*
X-5728143Y+2835991D01*
X-5719608Y+2844526D01*
X-5711074Y+2844526D01*
X-5702540Y+2835991D01*
X-5702540Y+2810388D01*
X-5694005Y+2801854D01*
X-5676936Y+2801854D01*
X-5676936Y+2844526D01*
D31*
X-5768580Y+2245840D02*
X-5626340Y+2245840D01*
X-5626340Y+2560800D01*
X-5768580Y+2560800D01*
X-5768580Y+2245840D01*
D67*
X-5700000Y+2296640D02*
X-5700000Y+2296640D01*
D77*
X-5680391Y+2386251D02*
X-5671856Y+2377716D01*
X-5671856Y+2352113D01*
X-5688925Y+2335045D01*
X-5705994Y+2335045D01*
X-5723063Y+2352113D01*
X-5723063Y+2377716D01*
X-5714528Y+2386251D01*
X-5705994Y+2420388D02*
X-5723063Y+2437457D01*
X-5671856Y+2437457D01*
D31*
X-6384160Y+2065840D02*
X-5855840Y+2065840D01*
X-5855840Y+3102160D01*
X-6384160Y+3102160D01*
X-6384160Y+2065840D01*
D78*
X-6120000Y+2330000D02*
X-6120000Y+2330000D01*
D79*
X-6215097Y+2330407D02*
X-6024902Y+2520601D01*
X-6024902Y+2330407D02*
X-6215097Y+2520601D01*
X-6151699Y+2647398D02*
X-6215097Y+2710796D01*
X-6024902Y+2710796D01*
D31*
X-2367180Y+2206620D02*
X-1584860Y+2206620D01*
X-1584860Y+3623940D01*
X-2367180Y+3623940D01*
X-2367180Y+2206620D01*
D80*
X-2070000Y+3372480D02*
X-2070000Y+3372480D01*
D81*
X-1929080Y+2539767D02*
X-1882141Y+2539767D01*
X-1835202Y+2586706D01*
X-1835202Y+2774462D01*
X-1882141Y+2821401D01*
X-2116837Y+2821401D01*
X-2069898Y+2962219D02*
X-2116837Y+3009158D01*
X-2116837Y+3149975D01*
X-2069898Y+3196914D01*
X-2022959Y+3196914D01*
X-1976020Y+3149975D01*
X-1929080Y+3196914D01*
X-1882141Y+3196914D01*
X-1835202Y+3149975D01*
X-1835202Y+3009158D01*
X-1882141Y+2962219D01*
X-1976020Y+3056097D02*
X-1976020Y+3149975D01*
D31*
X-9321160Y+2865840D02*
X-8665840Y+2865840D01*
X-8665840Y+3648160D01*
X-9321160Y+3648160D01*
X-9321160Y+2865840D01*
D78*
X-8930000Y+3130000D02*
X-8930000Y+3130000D01*
D82*
X-8967423Y+3048382D02*
X-8941345Y+3048382D01*
X-8915268Y+3074459D01*
X-8915268Y+3178768D01*
X-8941345Y+3204845D01*
X-9071732Y+3204845D01*
X-9019577Y+3309154D02*
X-9071732Y+3361309D01*
X-8915268Y+3361309D01*
D31*
X-9321160Y+2065840D02*
X-8665840Y+2065840D01*
X-8665840Y+2848160D01*
X-9321160Y+2848160D01*
X-9321160Y+2065840D01*
D78*
X-8930000Y+2330000D02*
X-8930000Y+2330000D01*
D82*
X-8967423Y+2248382D02*
X-8941345Y+2248382D01*
X-8915268Y+2274459D01*
X-8915268Y+2378768D01*
X-8941345Y+2404845D01*
X-9071732Y+2404845D01*
X-9045655Y+2483077D02*
X-9071732Y+2509154D01*
X-9071732Y+2587386D01*
X-9045655Y+2613463D01*
X-9019577Y+2613463D01*
X-8993500Y+2587386D01*
X-8993500Y+2509154D01*
X-8967423Y+2483077D01*
X-8915268Y+2483077D01*
X-8915268Y+2613463D01*
D31*
X-2967160Y+3802840D02*
X-2692840Y+3802840D01*
X-2692840Y+4585160D01*
X-2967160Y+4585160D01*
X-2967160Y+3802840D01*
D78*
X-2830000Y+3940000D02*
X-2830000Y+3940000D01*
D83*
X-2813540Y+4062327D02*
X-2797081Y+4062327D01*
X-2780622Y+4078786D01*
X-2780622Y+4144622D01*
X-2797081Y+4161081D01*
X-2879377Y+4161081D01*
X-2813540Y+4292754D02*
X-2813540Y+4194000D01*
X-2879377Y+4259836D01*
X-2780622Y+4259836D01*
D31*
X-2687160Y+3802840D02*
X-2412840Y+3802840D01*
X-2412840Y+4585160D01*
X-2687160Y+4585160D01*
X-2687160Y+3802840D01*
D78*
X-2550000Y+3940000D02*
X-2550000Y+3940000D01*
D83*
X-2533540Y+4062327D02*
X-2517081Y+4062327D01*
X-2500622Y+4078786D01*
X-2500622Y+4144622D01*
X-2517081Y+4161081D01*
X-2599377Y+4161081D01*
X-2599377Y+4292754D02*
X-2599377Y+4210459D01*
X-2566459Y+4210459D01*
X-2566459Y+4276295D01*
X-2550000Y+4292754D01*
X-2517081Y+4292754D01*
X-2500622Y+4276295D01*
X-2500622Y+4226918D01*
X-2517081Y+4210459D01*
D31*
X-2407160Y+3802840D02*
X-2132840Y+3802840D01*
X-2132840Y+4585160D01*
X-2407160Y+4585160D01*
X-2407160Y+3802840D01*
D78*
X-2270000Y+3940000D02*
X-2270000Y+3940000D01*
D83*
X-2253540Y+4062327D02*
X-2237081Y+4062327D01*
X-2220622Y+4078786D01*
X-2220622Y+4144622D01*
X-2237081Y+4161081D01*
X-2319377Y+4161081D01*
X-2302918Y+4292754D02*
X-2319377Y+4276295D01*
X-2319377Y+4226918D01*
X-2302918Y+4210459D01*
X-2237081Y+4210459D01*
X-2220622Y+4226918D01*
X-2220622Y+4276295D01*
X-2237081Y+4292754D01*
X-2253540Y+4292754D01*
X-2270000Y+4276295D01*
X-2270000Y+4210459D01*
D64*
X-3090000Y+2895000D02*
X-3090000Y+2475000D01*
X-2730000Y+2475000D01*
X-2730000Y+2895000D01*
X-3090000Y+2895000D01*
X-2860000Y+2685000D02*
X-2960000Y+2685000D01*
X-2910000Y+2635000D02*
X-2910000Y+2735000D01*
D84*
X-2815000Y+2820000D02*
X-2815000Y+2820000D01*
D85*
X-2952499Y+2571668D02*
X-2881666Y+2571668D01*
X-2867500Y+2585834D01*
X-2867500Y+2642500D01*
X-2881666Y+2656667D01*
X-2952499Y+2656667D01*
X-2952499Y+2769999D02*
X-2952499Y+2699166D01*
X-2924166Y+2699166D01*
X-2924166Y+2755832D01*
X-2910000Y+2769999D01*
X-2881666Y+2769999D01*
X-2867500Y+2755832D01*
X-2867500Y+2713333D01*
X-2881666Y+2699166D01*
D64*
X-3090000Y+3595000D02*
X-3090000Y+3175000D01*
X-2730000Y+3175000D01*
X-2730000Y+3595000D01*
X-3090000Y+3595000D01*
X-2860000Y+3385000D02*
X-2960000Y+3385000D01*
X-2910000Y+3335000D02*
X-2910000Y+3435000D01*
D84*
X-2815000Y+3520000D02*
X-2815000Y+3520000D01*
D85*
X-2952499Y+3271668D02*
X-2881666Y+3271668D01*
X-2867500Y+3285834D01*
X-2867500Y+3342500D01*
X-2881666Y+3356667D01*
X-2952499Y+3356667D01*
X-2938333Y+3399166D02*
X-2952499Y+3413333D01*
X-2952499Y+3455832D01*
X-2938333Y+3469999D01*
X-2924166Y+3469999D01*
X-2910000Y+3455832D01*
X-2895833Y+3469999D01*
X-2881666Y+3469999D01*
X-2867500Y+3455832D01*
X-2867500Y+3413333D01*
X-2881666Y+3399166D01*
X-2910000Y+3427499D02*
X-2910000Y+3455832D01*
D64*
X-3155000Y+1411500D02*
X-2405000Y+1411500D01*
X-2405000Y+1961500D01*
X-3155000Y+1961500D01*
X-3155000Y+1411500D01*
X-2780000Y+1736500D02*
X-2780000Y+1636500D01*
X-2730000Y+1686500D02*
X-2830000Y+1686500D01*
D86*
X-3050000Y+1877000D02*
X-3050000Y+1877000D01*
D87*
X-2981332Y+1761999D02*
X-2981332Y+1636166D01*
X-2956166Y+1611000D01*
X-2855500Y+1611000D01*
X-2830333Y+1636166D01*
X-2830333Y+1761999D01*
X-2754834Y+1761999D02*
X-2629001Y+1761999D01*
X-2629001Y+1736833D01*
X-2754834Y+1611000D01*
D64*
X-2025000Y+1411500D02*
X-1275000Y+1411500D01*
X-1275000Y+1961500D01*
X-2025000Y+1961500D01*
X-2025000Y+1411500D01*
X-1650000Y+1736500D02*
X-1650000Y+1636500D01*
X-1600000Y+1686500D02*
X-1700000Y+1686500D01*
D86*
X-1920000Y+1877000D02*
X-1920000Y+1877000D01*
D87*
X-1851332Y+1761999D02*
X-1851332Y+1636166D01*
X-1826166Y+1611000D01*
X-1725500Y+1611000D01*
X-1700333Y+1636166D01*
X-1700333Y+1761999D01*
X-1499001Y+1661333D02*
X-1650000Y+1661333D01*
X-1549334Y+1761999D01*
X-1549334Y+1611000D01*
D64*
X-4205000Y+1418500D02*
X-3455000Y+1418500D01*
X-3455000Y+1968500D01*
X-4205000Y+1968500D01*
X-4205000Y+1418500D01*
X-3830000Y+1743500D02*
X-3830000Y+1643500D01*
X-3780000Y+1693500D02*
X-3880000Y+1693500D01*
D86*
X-4100000Y+1884000D02*
X-4100000Y+1884000D01*
D87*
X-4031332Y+1768999D02*
X-4031332Y+1643166D01*
X-4006166Y+1618000D01*
X-3905500Y+1618000D01*
X-3880333Y+1643166D01*
X-3880333Y+1768999D01*
X-3679001Y+1718666D02*
X-3704168Y+1693500D01*
X-3779667Y+1693500D01*
X-3804834Y+1718666D01*
X-3804834Y+1743833D01*
X-3779667Y+1768999D01*
X-3704168Y+1768999D01*
X-3679001Y+1743833D01*
X-3679001Y+1643166D01*
X-3704168Y+1618000D01*
X-3779667Y+1618000D01*
D64*
X-4215000Y+2578500D02*
X-3465000Y+2578500D01*
X-3465000Y+3128500D01*
X-4215000Y+3128500D01*
X-4215000Y+2578500D01*
X-3840000Y+2903500D02*
X-3840000Y+2803500D01*
X-3790000Y+2853500D02*
X-3890000Y+2853500D01*
D86*
X-4110000Y+3044000D02*
X-4110000Y+3044000D01*
D87*
X-4041332Y+2928999D02*
X-4041332Y+2803166D01*
X-4016166Y+2778000D01*
X-3915500Y+2778000D01*
X-3890333Y+2803166D01*
X-3890333Y+2928999D01*
X-3789667Y+2853500D02*
X-3814834Y+2878666D01*
X-3814834Y+2903833D01*
X-3789667Y+2928999D01*
X-3714168Y+2928999D01*
X-3689001Y+2903833D01*
X-3689001Y+2878666D01*
X-3714168Y+2853500D01*
X-3789667Y+2853500D01*
X-3814834Y+2828333D01*
X-3814834Y+2803166D01*
X-3789667Y+2778000D01*
X-3714168Y+2778000D01*
X-3689001Y+2803166D01*
X-3689001Y+2828333D01*
X-3714168Y+2853500D01*
D31*
X-1974160Y+2011420D02*
X-1659200Y+2011420D01*
X-1659200Y+2153660D01*
X-1974160Y+2153660D01*
X-1974160Y+2011420D01*
D67*
X-1710000Y+2080000D02*
X-1710000Y+2080000D01*
D77*
X-1833749Y+2065471D02*
X-1842284Y+2056936D01*
X-1867887Y+2056936D01*
X-1884955Y+2074005D01*
X-1884955Y+2091074D01*
X-1867887Y+2108143D01*
X-1842284Y+2108143D01*
X-1833749Y+2099608D01*
X-1765474Y+2108143D02*
X-1808146Y+2108143D01*
X-1808146Y+2091074D01*
X-1774009Y+2091074D01*
X-1765474Y+2082540D01*
X-1765474Y+2065471D01*
X-1774009Y+2056936D01*
X-1799612Y+2056936D01*
X-1808146Y+2065471D01*
D31*
X-2278580Y+1615840D02*
X-2136340Y+1615840D01*
X-2136340Y+1930800D01*
X-2278580Y+1930800D01*
X-2278580Y+1615840D01*
D67*
X-2210000Y+1666640D02*
X-2210000Y+1666640D01*
D68*
X-2183838Y+1678832D02*
X-2231082Y+1678832D01*
X-2231082Y+1718202D01*
X-2223208Y+1726076D01*
X-2215334Y+1726076D01*
X-2207460Y+1718202D01*
X-2207460Y+1678832D01*
X-2207460Y+1718202D02*
X-2199586Y+1726076D01*
X-2183838Y+1726076D01*
X-2215334Y+1757572D02*
X-2231082Y+1773320D01*
X-2183838Y+1773320D01*
X-2191712Y+1804816D02*
X-2223208Y+1804816D01*
X-2231082Y+1812690D01*
X-2231082Y+1844186D01*
X-2223208Y+1852060D01*
X-2191712Y+1852060D01*
X-2183838Y+1844186D01*
X-2183838Y+1812690D01*
X-2191712Y+1804816D01*
X-2183838Y+1804816D02*
X-2231082Y+1852060D01*
D31*
X-3963670Y+3481160D02*
X-3661410Y+3481160D01*
X-3661410Y+3742580D01*
X-3963670Y+3742580D01*
X-3963670Y+3481160D01*
D10*
X-3931920Y+3706520D02*
X-3931920Y+3706520D01*
D88*
X-3893142Y+3642096D02*
X-3893142Y+3591719D01*
X-3883067Y+3581644D01*
X-3842766Y+3581644D01*
X-3832691Y+3591719D01*
X-3832691Y+3642096D01*
X-3752089Y+3632021D02*
X-3762164Y+3642096D01*
X-3792390Y+3642096D01*
X-3802465Y+3632021D01*
X-3802465Y+3591719D01*
X-3792390Y+3581644D01*
X-3762164Y+3581644D01*
X-3752089Y+3591719D01*
X-3752089Y+3601795D01*
X-3762164Y+3611870D01*
X-3802465Y+3611870D01*
D31*
X-8721600Y+1084880D02*
X-7888480Y+1084880D01*
X-7888480Y+1745280D01*
X-8721600Y+1745280D01*
X-8721600Y+1084880D01*
D78*
X-8620000Y+1641140D02*
X-8620000Y+1641140D01*
D89*
X-8554976Y+1477564D02*
X-8554976Y+1373424D01*
X-8534148Y+1352596D01*
X-8450836Y+1352596D01*
X-8430008Y+1373424D01*
X-8430008Y+1477564D01*
X-8346696Y+1435908D02*
X-8305040Y+1477564D01*
X-8305040Y+1352596D01*
X-8221728Y+1373424D02*
X-8221728Y+1456736D01*
X-8200900Y+1477564D01*
X-8117588Y+1477564D01*
X-8096760Y+1456736D01*
X-8096760Y+1373424D01*
X-8117588Y+1352596D01*
X-8200900Y+1352596D01*
X-8221728Y+1373424D01*
X-8221728Y+1352596D02*
X-8096760Y+1477564D01*
D64*
X-7770000Y+1965000D02*
X-6620000Y+1965000D01*
X-6620000Y+2895000D01*
X-7770000Y+2895000D01*
X-7770000Y+1965000D01*
X-7195000Y+2480000D02*
X-7195000Y+2380000D01*
X-7145000Y+2430000D02*
X-7245000Y+2430000D01*
D65*
X-7510000Y+2430000D02*
X-7510000Y+2430000D01*
D66*
X-7272000Y+2353000D02*
X-7310500Y+2314500D01*
X-7426000Y+2314500D01*
X-7503000Y+2391500D01*
X-7503000Y+2468500D01*
X-7426000Y+2545500D01*
X-7310500Y+2545500D01*
X-7272000Y+2507000D01*
X-6964000Y+2507000D02*
X-7002500Y+2545500D01*
X-7118000Y+2545500D01*
X-7156500Y+2507000D01*
X-7156500Y+2353000D01*
X-7118000Y+2314500D01*
X-7002500Y+2314500D01*
X-6964000Y+2353000D01*
X-6964000Y+2391500D01*
X-7002500Y+2430000D01*
X-7156500Y+2430000D01*
D64*
X-7770000Y+1065000D02*
X-6620000Y+1065000D01*
X-6620000Y+1995000D01*
X-7770000Y+1995000D01*
X-7770000Y+1065000D01*
X-7195000Y+1580000D02*
X-7195000Y+1480000D01*
X-7145000Y+1530000D02*
X-7245000Y+1530000D01*
D65*
X-7510000Y+1530000D02*
X-7510000Y+1530000D01*
D66*
X-7272000Y+1453000D02*
X-7310500Y+1414500D01*
X-7426000Y+1414500D01*
X-7503000Y+1491500D01*
X-7503000Y+1568500D01*
X-7426000Y+1645500D01*
X-7310500Y+1645500D01*
X-7272000Y+1607000D01*
X-7156500Y+1645500D02*
X-6964000Y+1645500D01*
X-6964000Y+1607000D01*
X-7156500Y+1414500D01*
D64*
X-6165000Y+3285000D02*
X-5835000Y+3285000D01*
X-5835000Y+3475000D01*
X-6165000Y+3475000D01*
X-6165000Y+3285000D01*
X-6000000Y+3430000D02*
X-6000000Y+3330000D01*
X-5950000Y+3380000D02*
X-6050000Y+3380000D01*
D69*
X-6090000Y+3380000D02*
X-6090000Y+3380000D01*
D74*
X-6089332Y+3346500D02*
X-6089332Y+3413499D01*
X-6044666Y+3413499D01*
X-6022333Y+3391166D01*
X-6022333Y+3368833D01*
X-6044666Y+3346500D01*
X-6089332Y+3346500D01*
X-5977667Y+3391166D02*
X-5955334Y+3413499D01*
X-5955334Y+3346500D01*
D31*
X-6174160Y+3656340D02*
X-5859200Y+3656340D01*
X-5859200Y+3798580D01*
X-6174160Y+3798580D01*
X-6174160Y+3656340D01*
D67*
X-6123360Y+3730000D02*
X-6123360Y+3730000D01*
D77*
X-6084955Y+3701856D02*
X-6084955Y+3753063D01*
X-6042284Y+3753063D01*
X-6033749Y+3744528D01*
X-6033749Y+3735994D01*
X-6042284Y+3727460D01*
X-6084955Y+3727460D01*
X-6042284Y+3727460D02*
X-6033749Y+3718925D01*
X-6033749Y+3701856D01*
X-6008146Y+3744528D02*
X-5999612Y+3753063D01*
X-5974009Y+3753063D01*
X-5965474Y+3744528D01*
X-5965474Y+3735994D01*
X-5974009Y+3727460D01*
X-5999612Y+3727460D01*
X-6008146Y+3718925D01*
X-6008146Y+3701856D01*
X-5965474Y+3701856D01*
D31*
X-2610800Y+2011420D02*
X-2295840Y+2011420D01*
X-2295840Y+2153660D01*
X-2610800Y+2153660D01*
X-2610800Y+2011420D01*
D67*
X-2346640Y+2080000D02*
X-2346640Y+2080000D01*
D68*
X-2547808Y+2058918D02*
X-2547808Y+2106162D01*
X-2508438Y+2106162D01*
X-2500564Y+2098288D01*
X-2500564Y+2090414D01*
X-2508438Y+2082540D01*
X-2547808Y+2082540D01*
X-2508438Y+2082540D02*
X-2500564Y+2074666D01*
X-2500564Y+2058918D01*
X-2469068Y+2090414D02*
X-2453320Y+2106162D01*
X-2453320Y+2058918D01*
X-2406076Y+2090414D02*
X-2390328Y+2106162D01*
X-2390328Y+2058918D01*
D31*
X-2628580Y+2199200D02*
X-2486340Y+2199200D01*
X-2486340Y+2514160D01*
X-2628580Y+2514160D01*
X-2628580Y+2199200D01*
D67*
X-2560000Y+2250000D02*
X-2560000Y+2250000D01*
D68*
X-2533838Y+2262192D02*
X-2581082Y+2262192D01*
X-2581082Y+2301562D01*
X-2573208Y+2309436D01*
X-2565334Y+2309436D01*
X-2557460Y+2301562D01*
X-2557460Y+2262192D01*
X-2557460Y+2301562D02*
X-2549586Y+2309436D01*
X-2533838Y+2309436D01*
X-2565334Y+2340932D02*
X-2581082Y+2356680D01*
X-2533838Y+2356680D01*
X-2573208Y+2396050D02*
X-2581082Y+2403924D01*
X-2581082Y+2427546D01*
X-2573208Y+2435420D01*
X-2565334Y+2435420D01*
X-2557460Y+2427546D01*
X-2557460Y+2403924D01*
X-2549586Y+2396050D01*
X-2533838Y+2396050D01*
X-2533838Y+2435420D01*
D31*
X-4363660Y+2859200D02*
X-4221420Y+2859200D01*
X-4221420Y+3174160D01*
X-4363660Y+3174160D01*
X-4363660Y+2859200D01*
D67*
X-4290000Y+3123360D02*
X-4290000Y+3123360D01*
D68*
X-4268918Y+2922192D02*
X-4316162Y+2922192D01*
X-4316162Y+2961562D01*
X-4308288Y+2969436D01*
X-4300414Y+2969436D01*
X-4292540Y+2961562D01*
X-4292540Y+2922192D01*
X-4292540Y+2961562D02*
X-4284666Y+2969436D01*
X-4268918Y+2969436D01*
X-4300414Y+3000932D02*
X-4316162Y+3016680D01*
X-4268918Y+3016680D01*
X-4308288Y+3056050D02*
X-4316162Y+3063924D01*
X-4316162Y+3087546D01*
X-4308288Y+3095420D01*
X-4300414Y+3095420D01*
X-4292540Y+3087546D01*
X-4284666Y+3095420D01*
X-4276792Y+3095420D01*
X-4268918Y+3087546D01*
X-4268918Y+3063924D01*
X-4276792Y+3056050D01*
X-4292540Y+3071798D02*
X-4292540Y+3087546D01*
D31*
X-4000800Y+2416340D02*
X-3685840Y+2416340D01*
X-3685840Y+2558580D01*
X-4000800Y+2558580D01*
X-4000800Y+2416340D01*
D67*
X-3950000Y+2490000D02*
X-3950000Y+2490000D01*
D68*
X-3937808Y+2463838D02*
X-3937808Y+2511082D01*
X-3898438Y+2511082D01*
X-3890564Y+2503208D01*
X-3890564Y+2495334D01*
X-3898438Y+2487460D01*
X-3937808Y+2487460D01*
X-3898438Y+2487460D02*
X-3890564Y+2479586D01*
X-3890564Y+2463838D01*
X-3859068Y+2495334D02*
X-3843320Y+2511082D01*
X-3843320Y+2463838D01*
X-3764580Y+2479586D02*
X-3811824Y+2479586D01*
X-3780328Y+2511082D01*
X-3780328Y+2463838D01*
D31*
X-4000800Y+2221420D02*
X-3685840Y+2221420D01*
X-3685840Y+2363660D01*
X-4000800Y+2363660D01*
X-4000800Y+2221420D01*
D67*
X-3736640Y+2290000D02*
X-3736640Y+2290000D01*
D68*
X-3937808Y+2268918D02*
X-3937808Y+2316162D01*
X-3898438Y+2316162D01*
X-3890564Y+2308288D01*
X-3890564Y+2300414D01*
X-3898438Y+2292540D01*
X-3937808Y+2292540D01*
X-3898438Y+2292540D02*
X-3890564Y+2284666D01*
X-3890564Y+2268918D01*
X-3859068Y+2300414D02*
X-3843320Y+2316162D01*
X-3843320Y+2268918D01*
X-3764580Y+2316162D02*
X-3803950Y+2316162D01*
X-3803950Y+2300414D01*
X-3772454Y+2300414D01*
X-3764580Y+2292540D01*
X-3764580Y+2276792D01*
X-3772454Y+2268918D01*
X-3796076Y+2268918D01*
X-3803950Y+2276792D01*
D31*
X-4004160Y+2016340D02*
X-3689200Y+2016340D01*
X-3689200Y+2158580D01*
X-4004160Y+2158580D01*
X-4004160Y+2016340D01*
D67*
X-3953360Y+2090000D02*
X-3953360Y+2090000D01*
D68*
X-3941168Y+2063838D02*
X-3941168Y+2111082D01*
X-3901798Y+2111082D01*
X-3893924Y+2103208D01*
X-3893924Y+2095334D01*
X-3901798Y+2087460D01*
X-3941168Y+2087460D01*
X-3901798Y+2087460D02*
X-3893924Y+2079586D01*
X-3893924Y+2063838D01*
X-3862428Y+2095334D02*
X-3846680Y+2111082D01*
X-3846680Y+2063838D01*
X-3767940Y+2103208D02*
X-3775814Y+2111082D01*
X-3799436Y+2111082D01*
X-3807310Y+2103208D01*
X-3807310Y+2071712D01*
X-3799436Y+2063838D01*
X-3775814Y+2063838D01*
X-3767940Y+2071712D01*
X-3767940Y+2079586D01*
X-3775814Y+2087460D01*
X-3807310Y+2087460D01*
D31*
X-4820800Y+1916340D02*
X-4505840Y+1916340D01*
X-4505840Y+2058580D01*
X-4820800Y+2058580D01*
X-4820800Y+1916340D01*
D67*
X-4770000Y+1990000D02*
X-4770000Y+1990000D01*
D68*
X-4757808Y+1963838D02*
X-4757808Y+2011082D01*
X-4718438Y+2011082D01*
X-4710564Y+2003208D01*
X-4710564Y+1995334D01*
X-4718438Y+1987460D01*
X-4757808Y+1987460D01*
X-4718438Y+1987460D02*
X-4710564Y+1979586D01*
X-4710564Y+1963838D01*
X-4679068Y+1995334D02*
X-4663320Y+2011082D01*
X-4663320Y+1963838D01*
X-4616076Y+1987460D02*
X-4623950Y+1995334D01*
X-4623950Y+2003208D01*
X-4616076Y+2011082D01*
X-4592454Y+2011082D01*
X-4584580Y+2003208D01*
X-4584580Y+1995334D01*
X-4592454Y+1987460D01*
X-4616076Y+1987460D01*
X-4623950Y+1979586D01*
X-4623950Y+1971712D01*
X-4616076Y+1963838D01*
X-4592454Y+1963838D01*
X-4584580Y+1971712D01*
X-4584580Y+1979586D01*
X-4592454Y+1987460D01*
D31*
X-4810800Y+1606340D02*
X-4495840Y+1606340D01*
X-4495840Y+1748580D01*
X-4810800Y+1748580D01*
X-4810800Y+1606340D01*
D67*
X-4760000Y+1680000D02*
X-4760000Y+1680000D01*
D68*
X-4747808Y+1653838D02*
X-4747808Y+1701082D01*
X-4708438Y+1701082D01*
X-4700564Y+1693208D01*
X-4700564Y+1685334D01*
X-4708438Y+1677460D01*
X-4747808Y+1677460D01*
X-4708438Y+1677460D02*
X-4700564Y+1669586D01*
X-4700564Y+1653838D01*
X-4669068Y+1685334D02*
X-4653320Y+1701082D01*
X-4653320Y+1653838D01*
X-4574580Y+1685334D02*
X-4582454Y+1677460D01*
X-4606076Y+1677460D01*
X-4613950Y+1685334D01*
X-4613950Y+1693208D01*
X-4606076Y+1701082D01*
X-4582454Y+1701082D01*
X-4574580Y+1693208D01*
X-4574580Y+1661712D01*
X-4582454Y+1653838D01*
X-4606076Y+1653838D01*
D31*
X-4820800Y+1286340D02*
X-4505840Y+1286340D01*
X-4505840Y+1428580D01*
X-4820800Y+1428580D01*
X-4820800Y+1286340D01*
D67*
X-4770000Y+1360000D02*
X-4770000Y+1360000D01*
D68*
X-4757808Y+1333838D02*
X-4757808Y+1381082D01*
X-4718438Y+1381082D01*
X-4710564Y+1373208D01*
X-4710564Y+1365334D01*
X-4718438Y+1357460D01*
X-4757808Y+1357460D01*
X-4718438Y+1357460D02*
X-4710564Y+1349586D01*
X-4710564Y+1333838D01*
X-4686942Y+1373208D02*
X-4679068Y+1381082D01*
X-4655446Y+1381082D01*
X-4647572Y+1373208D01*
X-4647572Y+1365334D01*
X-4655446Y+1357460D01*
X-4679068Y+1357460D01*
X-4686942Y+1349586D01*
X-4686942Y+1333838D01*
X-4647572Y+1333838D01*
X-4631824Y+1341712D02*
X-4631824Y+1373208D01*
X-4623950Y+1381082D01*
X-4592454Y+1381082D01*
X-4584580Y+1373208D01*
X-4584580Y+1341712D01*
X-4592454Y+1333838D01*
X-4623950Y+1333838D01*
X-4631824Y+1341712D01*
X-4631824Y+1333838D02*
X-4584580Y+1381082D01*
D31*
X-5320800Y+1916340D02*
X-5005840Y+1916340D01*
X-5005840Y+2058580D01*
X-5320800Y+2058580D01*
X-5320800Y+1916340D01*
D67*
X-5270000Y+1990000D02*
X-5270000Y+1990000D01*
D68*
X-5257808Y+1963838D02*
X-5257808Y+2011082D01*
X-5218438Y+2011082D01*
X-5210564Y+2003208D01*
X-5210564Y+1995334D01*
X-5218438Y+1987460D01*
X-5257808Y+1987460D01*
X-5218438Y+1987460D02*
X-5210564Y+1979586D01*
X-5210564Y+1963838D01*
X-5186942Y+2003208D02*
X-5179068Y+2011082D01*
X-5155446Y+2011082D01*
X-5147572Y+2003208D01*
X-5147572Y+1995334D01*
X-5155446Y+1987460D01*
X-5179068Y+1987460D01*
X-5186942Y+1979586D01*
X-5186942Y+1963838D01*
X-5147572Y+1963838D01*
X-5116076Y+1995334D02*
X-5100328Y+2011082D01*
X-5100328Y+1963838D01*
D31*
X-5320800Y+1606340D02*
X-5005840Y+1606340D01*
X-5005840Y+1748580D01*
X-5320800Y+1748580D01*
X-5320800Y+1606340D01*
D67*
X-5270000Y+1680000D02*
X-5270000Y+1680000D01*
D68*
X-5257808Y+1653838D02*
X-5257808Y+1701082D01*
X-5218438Y+1701082D01*
X-5210564Y+1693208D01*
X-5210564Y+1685334D01*
X-5218438Y+1677460D01*
X-5257808Y+1677460D01*
X-5218438Y+1677460D02*
X-5210564Y+1669586D01*
X-5210564Y+1653838D01*
X-5186942Y+1693208D02*
X-5179068Y+1701082D01*
X-5155446Y+1701082D01*
X-5147572Y+1693208D01*
X-5147572Y+1685334D01*
X-5155446Y+1677460D01*
X-5179068Y+1677460D01*
X-5186942Y+1669586D01*
X-5186942Y+1653838D01*
X-5147572Y+1653838D01*
X-5123950Y+1693208D02*
X-5116076Y+1701082D01*
X-5092454Y+1701082D01*
X-5084580Y+1693208D01*
X-5084580Y+1685334D01*
X-5092454Y+1677460D01*
X-5116076Y+1677460D01*
X-5123950Y+1669586D01*
X-5123950Y+1653838D01*
X-5084580Y+1653838D01*
D31*
X-5320800Y+1286340D02*
X-5005840Y+1286340D01*
X-5005840Y+1428580D01*
X-5320800Y+1428580D01*
X-5320800Y+1286340D01*
D67*
X-5270000Y+1360000D02*
X-5270000Y+1360000D01*
D68*
X-5257808Y+1333838D02*
X-5257808Y+1381082D01*
X-5218438Y+1381082D01*
X-5210564Y+1373208D01*
X-5210564Y+1365334D01*
X-5218438Y+1357460D01*
X-5257808Y+1357460D01*
X-5218438Y+1357460D02*
X-5210564Y+1349586D01*
X-5210564Y+1333838D01*
X-5186942Y+1373208D02*
X-5179068Y+1381082D01*
X-5155446Y+1381082D01*
X-5147572Y+1373208D01*
X-5147572Y+1365334D01*
X-5155446Y+1357460D01*
X-5179068Y+1357460D01*
X-5186942Y+1349586D01*
X-5186942Y+1333838D01*
X-5147572Y+1333838D01*
X-5123950Y+1373208D02*
X-5116076Y+1381082D01*
X-5092454Y+1381082D01*
X-5084580Y+1373208D01*
X-5084580Y+1365334D01*
X-5092454Y+1357460D01*
X-5084580Y+1349586D01*
X-5084580Y+1341712D01*
X-5092454Y+1333838D01*
X-5116076Y+1333838D01*
X-5123950Y+1341712D01*
X-5108202Y+1357460D02*
X-5092454Y+1357460D01*
D31*
X-6398580Y+4215840D02*
X-6256340Y+4215840D01*
X-6256340Y+4530800D01*
X-6398580Y+4530800D01*
X-6398580Y+4215840D01*
D67*
X-6330000Y+4266640D02*
X-6330000Y+4266640D01*
D77*
X-6301856Y+4305045D02*
X-6353063Y+4305045D01*
X-6353063Y+4347716D01*
X-6344528Y+4356251D01*
X-6335994Y+4356251D01*
X-6327460Y+4347716D01*
X-6327460Y+4305045D01*
X-6327460Y+4347716D02*
X-6318925Y+4356251D01*
X-6301856Y+4356251D01*
X-6335994Y+4390388D02*
X-6353063Y+4407457D01*
X-6301856Y+4407457D01*
D31*
X-4050800Y+4391420D02*
X-3735840Y+4391420D01*
X-3735840Y+4533660D01*
X-4050800Y+4533660D01*
X-4050800Y+4391420D01*
D67*
X-3786640Y+4460000D02*
X-3786640Y+4460000D01*
D77*
X-3961595Y+4436936D02*
X-3961595Y+4488143D01*
X-3918924Y+4488143D01*
X-3910389Y+4479608D01*
X-3910389Y+4471074D01*
X-3918924Y+4462540D01*
X-3961595Y+4462540D01*
X-3918924Y+4462540D02*
X-3910389Y+4454005D01*
X-3910389Y+4436936D01*
X-3884786Y+4479608D02*
X-3876252Y+4488143D01*
X-3850649Y+4488143D01*
X-3842114Y+4479608D01*
X-3842114Y+4471074D01*
X-3850649Y+4462540D01*
X-3842114Y+4454005D01*
X-3842114Y+4445471D01*
X-3850649Y+4436936D01*
X-3876252Y+4436936D01*
X-3884786Y+4445471D01*
X-3867717Y+4462540D02*
X-3850649Y+4462540D01*
D31*
X-3594160Y+4391420D02*
X-3279200Y+4391420D01*
X-3279200Y+4533660D01*
X-3594160Y+4533660D01*
X-3594160Y+4391420D01*
D67*
X-3330000Y+4460000D02*
X-3330000Y+4460000D01*
D77*
X-3504955Y+4436936D02*
X-3504955Y+4488143D01*
X-3462284Y+4488143D01*
X-3453749Y+4479608D01*
X-3453749Y+4471074D01*
X-3462284Y+4462540D01*
X-3504955Y+4462540D01*
X-3462284Y+4462540D02*
X-3453749Y+4454005D01*
X-3453749Y+4436936D01*
X-3385474Y+4471074D02*
X-3394009Y+4462540D01*
X-3419612Y+4462540D01*
X-3428146Y+4471074D01*
X-3428146Y+4479608D01*
X-3419612Y+4488143D01*
X-3394009Y+4488143D01*
X-3385474Y+4479608D01*
X-3385474Y+4445471D01*
X-3394009Y+4436936D01*
X-3419612Y+4436936D01*
D31*
X-4054160Y+4081420D02*
X-3739200Y+4081420D01*
X-3739200Y+4223660D01*
X-4054160Y+4223660D01*
X-4054160Y+4081420D01*
D67*
X-3790000Y+4150000D02*
X-3790000Y+4150000D01*
D77*
X-3964955Y+4126936D02*
X-3964955Y+4178143D01*
X-3922284Y+4178143D01*
X-3913749Y+4169608D01*
X-3913749Y+4161074D01*
X-3922284Y+4152540D01*
X-3964955Y+4152540D01*
X-3922284Y+4152540D02*
X-3913749Y+4144005D01*
X-3913749Y+4126936D01*
X-3879612Y+4152540D02*
X-3888146Y+4161074D01*
X-3888146Y+4169608D01*
X-3879612Y+4178143D01*
X-3854009Y+4178143D01*
X-3845474Y+4169608D01*
X-3845474Y+4161074D01*
X-3854009Y+4152540D01*
X-3879612Y+4152540D01*
X-3888146Y+4144005D01*
X-3888146Y+4135471D01*
X-3879612Y+4126936D01*
X-3854009Y+4126936D01*
X-3845474Y+4135471D01*
X-3845474Y+4144005D01*
X-3854009Y+4152540D01*
D31*
X-5000800Y+3426340D02*
X-4685840Y+3426340D01*
X-4685840Y+3568580D01*
X-5000800Y+3568580D01*
X-5000800Y+3426340D01*
D67*
X-4950000Y+3500000D02*
X-4950000Y+3500000D01*
D77*
X-4911595Y+3471856D02*
X-4911595Y+3523063D01*
X-4868924Y+3523063D01*
X-4860389Y+3514528D01*
X-4860389Y+3505994D01*
X-4868924Y+3497460D01*
X-4911595Y+3497460D01*
X-4868924Y+3497460D02*
X-4860389Y+3488925D01*
X-4860389Y+3471856D01*
X-4792114Y+3488925D02*
X-4843320Y+3488925D01*
X-4809183Y+3523063D01*
X-4809183Y+3471856D01*
D31*
X-5000800Y+3736340D02*
X-4685840Y+3736340D01*
X-4685840Y+3878580D01*
X-5000800Y+3878580D01*
X-5000800Y+3736340D01*
D67*
X-4950000Y+3810000D02*
X-4950000Y+3810000D01*
D77*
X-4911595Y+3781856D02*
X-4911595Y+3833063D01*
X-4868924Y+3833063D01*
X-4860389Y+3824528D01*
X-4860389Y+3815994D01*
X-4868924Y+3807460D01*
X-4911595Y+3807460D01*
X-4868924Y+3807460D02*
X-4860389Y+3798925D01*
X-4860389Y+3781856D01*
X-4792114Y+3833063D02*
X-4834786Y+3833063D01*
X-4834786Y+3815994D01*
X-4800649Y+3815994D01*
X-4792114Y+3807460D01*
X-4792114Y+3790391D01*
X-4800649Y+3781856D01*
X-4826252Y+3781856D01*
X-4834786Y+3790391D01*
D31*
X-6437160Y+1062840D02*
X-5908840Y+1062840D01*
X-5908840Y+1337160D01*
X-6437160Y+1337160D01*
X-6437160Y+1062840D01*
D78*
X-6300000Y+1200000D02*
X-6300000Y+1200000D01*
D90*
X-6357912Y+1180188D02*
X-6357912Y+1219812D01*
X-6324892Y+1219812D01*
X-6318288Y+1213208D01*
X-6318288Y+1206604D01*
X-6324892Y+1200000D01*
X-6318288Y+1193396D01*
X-6318288Y+1186792D01*
X-6324892Y+1180188D01*
X-6357912Y+1180188D01*
X-6357912Y+1200000D02*
X-6324892Y+1200000D01*
X-6305080Y+1219812D02*
X-6305080Y+1186792D01*
X-6298476Y+1180188D01*
X-6272060Y+1180188D01*
X-6265456Y+1186792D01*
X-6265456Y+1219812D01*
X-6252248Y+1219812D02*
X-6212624Y+1219812D01*
X-6232436Y+1219812D02*
X-6232436Y+1180188D01*
X-6199416Y+1219812D02*
X-6159792Y+1219812D01*
X-6179604Y+1219812D02*
X-6179604Y+1180188D01*
X-6146584Y+1206604D02*
X-6133376Y+1219812D01*
X-6120168Y+1219812D01*
X-6106960Y+1206604D01*
X-6106960Y+1193396D01*
X-6120168Y+1180188D01*
X-6133376Y+1180188D01*
X-6146584Y+1193396D01*
X-6146584Y+1206604D01*
X-6093752Y+1180188D02*
X-6093752Y+1219812D01*
X-6054128Y+1180188D01*
X-6054128Y+1219812D01*
X-6027712Y+1206604D02*
X-6014504Y+1219812D01*
X-6014504Y+1180188D01*
D31*
X-6437160Y+1642840D02*
X-5908840Y+1642840D01*
X-5908840Y+1917160D01*
X-6437160Y+1917160D01*
X-6437160Y+1642840D01*
D78*
X-6300000Y+1780000D02*
X-6300000Y+1780000D01*
D90*
X-6357912Y+1760188D02*
X-6357912Y+1799812D01*
X-6324892Y+1799812D01*
X-6318288Y+1793208D01*
X-6318288Y+1786604D01*
X-6324892Y+1780000D01*
X-6318288Y+1773396D01*
X-6318288Y+1766792D01*
X-6324892Y+1760188D01*
X-6357912Y+1760188D01*
X-6357912Y+1780000D02*
X-6324892Y+1780000D01*
X-6305080Y+1799812D02*
X-6305080Y+1766792D01*
X-6298476Y+1760188D01*
X-6272060Y+1760188D01*
X-6265456Y+1766792D01*
X-6265456Y+1799812D01*
X-6252248Y+1799812D02*
X-6212624Y+1799812D01*
X-6232436Y+1799812D02*
X-6232436Y+1760188D01*
X-6199416Y+1799812D02*
X-6159792Y+1799812D01*
X-6179604Y+1799812D02*
X-6179604Y+1760188D01*
X-6146584Y+1786604D02*
X-6133376Y+1799812D01*
X-6120168Y+1799812D01*
X-6106960Y+1786604D01*
X-6106960Y+1773396D01*
X-6120168Y+1760188D01*
X-6133376Y+1760188D01*
X-6146584Y+1773396D01*
X-6146584Y+1786604D01*
X-6093752Y+1760188D02*
X-6093752Y+1799812D01*
X-6054128Y+1760188D01*
X-6054128Y+1799812D01*
X-6034316Y+1793208D02*
X-6027712Y+1799812D01*
X-6007900Y+1799812D01*
X-6001296Y+1793208D01*
X-6001296Y+1786604D01*
X-6007900Y+1780000D01*
X-6027712Y+1780000D01*
X-6034316Y+1773396D01*
X-6034316Y+1760188D01*
X-6001296Y+1760188D01*
D31*
X-6350800Y+1486340D02*
X-6035840Y+1486340D01*
X-6035840Y+1628580D01*
X-6350800Y+1628580D01*
X-6350800Y+1486340D01*
D67*
X-6300000Y+1560000D02*
X-6300000Y+1560000D01*
D77*
X-6261595Y+1531856D02*
X-6261595Y+1583063D01*
X-6218924Y+1583063D01*
X-6210389Y+1574528D01*
X-6210389Y+1565994D01*
X-6218924Y+1557460D01*
X-6261595Y+1557460D01*
X-6218924Y+1557460D02*
X-6210389Y+1548925D01*
X-6210389Y+1531856D01*
X-6142114Y+1574528D02*
X-6150649Y+1583063D01*
X-6176252Y+1583063D01*
X-6184786Y+1574528D01*
X-6184786Y+1540391D01*
X-6176252Y+1531856D01*
X-6150649Y+1531856D01*
X-6142114Y+1540391D01*
X-6142114Y+1548925D01*
X-6150649Y+1557460D01*
X-6184786Y+1557460D01*
D31*
X-5748580Y+1509200D02*
X-5606340Y+1509200D01*
X-5606340Y+1824160D01*
X-5748580Y+1824160D01*
X-5748580Y+1509200D01*
D67*
X-5680000Y+1560000D02*
X-5680000Y+1560000D01*
D77*
X-5651856Y+1598405D02*
X-5703063Y+1598405D01*
X-5703063Y+1641076D01*
X-5694528Y+1649611D01*
X-5685994Y+1649611D01*
X-5677460Y+1641076D01*
X-5677460Y+1598405D01*
X-5677460Y+1641076D02*
X-5668925Y+1649611D01*
X-5651856Y+1649611D01*
X-5703063Y+1675214D02*
X-5703063Y+1717886D01*
X-5694528Y+1717886D01*
X-5651856Y+1675214D01*
D39*
X-9310000Y-3105000D02*
X-1110000Y-3105000D01*
X-1110000Y+750000D01*
X-9310000Y+750000D01*
X-9310000Y-3105000D01*
D91*
X-8460000Y+370000D02*
X-8460000Y+370000D01*
D92*
X-7837200Y-684900D02*
X-7837200Y-1670100D01*
X-6852000Y-1670100D01*
X-5538400Y-1505900D02*
X-5702600Y-1670100D01*
X-6195200Y-1670100D01*
X-6523600Y-1341700D01*
X-6523600Y-1013300D01*
X-6195200Y-684900D01*
X-5702600Y-684900D01*
X-5538400Y-849100D01*
X-5210000Y-1670100D02*
X-5210000Y-684900D01*
X-4553200Y-684900D01*
X-4224800Y-1013300D01*
X-4224800Y-1341700D01*
X-4553200Y-1670100D01*
X-5210000Y-1670100D01*
X-3568000Y-1013300D02*
X-3239600Y-684900D01*
X-3239600Y-1670100D01*
M02*
