G04 PROTEUS RS274X GERBER FILE*
%FSLAX45Y45*%
%MOMM*%
G01*
%ADD10C,0.254000*%
%ADD11C,0.635000*%
%ADD12C,0.762000*%
%ADD13C,0.762000*%
%ADD14R,6.985000X6.985000*%
%ADD15R,2.540000X1.524000*%
%ADD16R,4.140200X1.600200*%
%ADD17R,1.016000X1.270000*%
%ADD18R,0.990600X1.397000*%
%ADD19R,1.498600X0.558800*%
%ADD70R,0.558800X1.498600*%
%ADD71R,1.270000X1.016000*%
%ADD20C,2.032000*%
%ADD21C,3.048000*%
%ADD22R,2.032000X2.032000*%
%ADD23R,0.660400X0.990600*%
%ADD24R,1.549400X0.609600*%
%ADD25C,0.960000*%
%ADD26C,0.500000*%
%ADD27R,0.635000X0.508000*%
%ADD28R,2.032000X1.524000*%
%ADD29R,2.032000X3.810000*%
%ADD72C,1.800000*%
%ADD73C,4.050000*%
%ADD30C,4.000000*%
%ADD31C,0.203200*%
G36*
X-5600000Y+3022236D02*
X-5618982Y+3022236D01*
X-5637581Y+3003637D01*
X-5637581Y+2983819D01*
X-5796519Y+2983819D01*
X-5796519Y+2816181D01*
X-5643618Y+2816181D01*
X-5643618Y+2770459D01*
X-5796519Y+2770459D01*
X-5796519Y+2732359D01*
X-5949703Y+2732359D01*
X-5992482Y+2775138D01*
X-5985381Y+2782239D01*
X-5985381Y+2893761D01*
X-6064239Y+2972619D01*
X-6175761Y+2972619D01*
X-6254619Y+2893761D01*
X-6254619Y+2782239D01*
X-6175761Y+2703381D01*
X-6064239Y+2703381D01*
X-6057138Y+2710482D01*
X-5987577Y+2640921D01*
X-5796519Y+2640921D01*
X-5796519Y+2602821D01*
X-5671835Y+2602821D01*
X-5680837Y+2593819D01*
X-5796519Y+2593819D01*
X-5796519Y+2555719D01*
X-5958937Y+2555719D01*
X-6057138Y+2457518D01*
X-6064239Y+2464619D01*
X-6175761Y+2464619D01*
X-6254619Y+2385761D01*
X-6254619Y+2274239D01*
X-6175761Y+2195381D01*
X-6064239Y+2195381D01*
X-5985381Y+2274239D01*
X-5985381Y+2385761D01*
X-5992482Y+2392862D01*
X-5921063Y+2464281D01*
X-5796519Y+2464281D01*
X-5796519Y+2426181D01*
X-5603481Y+2426181D01*
X-5603481Y+2534281D01*
X-5600000Y+2534281D01*
X-5600000Y+2062831D01*
X-6400000Y+2062831D01*
X-6400000Y+3100000D01*
X-5600000Y+3100000D01*
X-5600000Y+3022236D01*
G37*
%LPC*%
G36*
X-5796519Y+2212821D02*
X-5796519Y+2380459D01*
X-5603481Y+2380459D01*
X-5603481Y+2212821D01*
X-5796519Y+2212821D01*
G37*
%LPD*%
G36*
X-1150000Y+1250000D02*
X-4400000Y+1250000D01*
X-4400000Y+1451984D01*
X-4379004Y+1472980D01*
X-4379004Y+2100000D01*
X-4037179Y+2100000D01*
X-4037179Y+1993481D01*
X-3995719Y+1993481D01*
X-3995719Y+1947499D01*
X-4210489Y+1947499D01*
X-4210489Y+1820501D01*
X-4044155Y+1820501D01*
X-4044157Y+1820499D01*
X-4210489Y+1820499D01*
X-4210489Y+1693501D01*
X-3989511Y+1693501D01*
X-3989511Y+1745833D01*
X-3904281Y+1831063D01*
X-3904281Y+1993481D01*
X-3869541Y+1993481D01*
X-3869541Y+2100000D01*
X-3823819Y+2100000D01*
X-3823819Y+1993481D01*
X-3656181Y+1993481D01*
X-3656181Y+2044281D01*
X-3508937Y+2044281D01*
X-3445719Y+1981063D01*
X-3445719Y+1778554D01*
X-3449511Y+1774762D01*
X-3449511Y+1820499D01*
X-3670489Y+1820499D01*
X-3670489Y+1768161D01*
X-3727962Y+1710688D01*
X-3763883Y+1710688D01*
X-3807203Y+1667368D01*
X-3807203Y+1608452D01*
X-3765542Y+1566791D01*
X-3763415Y+1566791D01*
X-3788103Y+1542103D01*
X-3989511Y+1542103D01*
X-3989511Y+1566499D01*
X-4210489Y+1566499D01*
X-4210489Y+1548719D01*
X-4226451Y+1548719D01*
X-4236873Y+1559141D01*
X-4295789Y+1559141D01*
X-4337450Y+1517480D01*
X-4337450Y+1458564D01*
X-4295789Y+1416903D01*
X-4236873Y+1416903D01*
X-4210489Y+1443287D01*
X-4210489Y+1439501D01*
X-3989511Y+1439501D01*
X-3989511Y+1450665D01*
X-3788103Y+1450665D01*
X-3762703Y+1425265D01*
X-3703787Y+1425265D01*
X-3670489Y+1458563D01*
X-3670489Y+1439501D01*
X-3449511Y+1439501D01*
X-3449511Y+1566499D01*
X-3670489Y+1566499D01*
X-3670489Y+1534205D01*
X-3703787Y+1567503D01*
X-3705914Y+1567503D01*
X-3670489Y+1602928D01*
X-3670489Y+1566501D01*
X-3449511Y+1566501D01*
X-3449511Y+1645450D01*
X-3354281Y+1740680D01*
X-3354281Y+2018937D01*
X-3435344Y+2100000D01*
X-2643819Y+2100000D01*
X-2643819Y+2056455D01*
X-2643953Y+2056306D01*
X-2904540Y+1795719D01*
X-2939511Y+1795719D01*
X-2939511Y+1813499D01*
X-3160489Y+1813499D01*
X-3160489Y+1686501D01*
X-2939511Y+1686501D01*
X-2939511Y+1704281D01*
X-2866666Y+1704281D01*
X-2587466Y+1983481D01*
X-2497196Y+1983481D01*
X-2454214Y+1940499D01*
X-2620489Y+1940499D01*
X-2620489Y+1813501D01*
X-2434221Y+1813501D01*
X-2434221Y+1813499D01*
X-2620489Y+1813499D01*
X-2620489Y+1770108D01*
X-2679909Y+1710688D01*
X-2715830Y+1710688D01*
X-2757491Y+1669027D01*
X-2757491Y+1610111D01*
X-2715830Y+1568450D01*
X-2656914Y+1568450D01*
X-2620489Y+1604875D01*
X-2620489Y+1559501D01*
X-2399511Y+1559501D01*
X-2399511Y+1636221D01*
X-2342783Y+1692949D01*
X-2342783Y+1948127D01*
X-2306519Y+1911863D01*
X-2306519Y+1796181D01*
X-2113481Y+1796181D01*
X-2113481Y+1831281D01*
X-2030489Y+1831281D01*
X-2030489Y+1813501D01*
X-1809511Y+1813501D01*
X-1809511Y+1940499D01*
X-1877641Y+1940499D01*
X-1877641Y+1983481D01*
X-1839541Y+1983481D01*
X-1839541Y+2100000D01*
X-1793819Y+2100000D01*
X-1793819Y+1983481D01*
X-1755719Y+1983481D01*
X-1755719Y+1841915D01*
X-1802911Y+1794723D01*
X-1809511Y+1794723D01*
X-1809511Y+1813499D01*
X-2030489Y+1813499D01*
X-2030489Y+1795719D01*
X-2134701Y+1795719D01*
X-2178778Y+1751642D01*
X-2180288Y+1750459D01*
X-2306519Y+1750459D01*
X-2306519Y+1582821D01*
X-2113481Y+1582821D01*
X-2113481Y+1687627D01*
X-2096827Y+1704281D01*
X-2030489Y+1704281D01*
X-2030489Y+1686501D01*
X-1809511Y+1686501D01*
X-1809511Y+1703285D01*
X-1765037Y+1703285D01*
X-1664281Y+1804041D01*
X-1664281Y+1983481D01*
X-1626181Y+1983481D01*
X-1626181Y+2100000D01*
X-1150000Y+2100000D01*
X-1150000Y+1250000D01*
G37*
%LPC*%
G36*
X-3160489Y+1813501D02*
X-3160489Y+1940499D01*
X-2939511Y+1940499D01*
X-2939511Y+1813501D01*
X-3160489Y+1813501D01*
G37*
G36*
X-3160489Y+1559501D02*
X-3160489Y+1686499D01*
X-2939511Y+1686499D01*
X-2939511Y+1559501D01*
X-3160489Y+1559501D01*
G37*
G36*
X-2766861Y+1527390D02*
X-2766861Y+1468474D01*
X-2808522Y+1426813D01*
X-2867438Y+1426813D01*
X-2892838Y+1452213D01*
X-2939511Y+1452213D01*
X-2939511Y+1432501D01*
X-3160489Y+1432501D01*
X-3160489Y+1559499D01*
X-2939511Y+1559499D01*
X-2939511Y+1543651D01*
X-2892838Y+1543651D01*
X-2867438Y+1569051D01*
X-2808522Y+1569051D01*
X-2766861Y+1527390D01*
G37*
G36*
X-2620489Y+1432501D02*
X-2620489Y+1559499D01*
X-2399511Y+1559499D01*
X-2399511Y+1432501D01*
X-2620489Y+1432501D01*
G37*
G36*
X-2030489Y+1559501D02*
X-2030489Y+1686499D01*
X-1809511Y+1686499D01*
X-1809511Y+1559501D01*
X-2030489Y+1559501D01*
G37*
G36*
X-2141142Y+1541719D02*
X-2030489Y+1541719D01*
X-2030489Y+1559499D01*
X-1809511Y+1559499D01*
X-1809511Y+1432501D01*
X-2030489Y+1432501D01*
X-2030489Y+1450281D01*
X-2149142Y+1450281D01*
X-2170542Y+1428881D01*
X-2229458Y+1428881D01*
X-2271119Y+1470542D01*
X-2271119Y+1529458D01*
X-2229458Y+1571119D01*
X-2170542Y+1571119D01*
X-2141142Y+1541719D01*
G37*
G36*
X-1490489Y+1432501D02*
X-1490489Y+1559499D01*
X-1269511Y+1559499D01*
X-1269511Y+1432501D01*
X-1490489Y+1432501D01*
G37*
G36*
X-1490489Y+1559501D02*
X-1490489Y+1686499D01*
X-1269511Y+1686499D01*
X-1269511Y+1559501D01*
X-1490489Y+1559501D01*
G37*
G36*
X-1269511Y+1813501D02*
X-1408143Y+1813501D01*
X-1408145Y+1813499D01*
X-1269511Y+1813499D01*
X-1269511Y+1686501D01*
X-1490489Y+1686501D01*
X-1490489Y+1731155D01*
X-1636887Y+1584757D01*
X-1673710Y+1584757D01*
X-1699110Y+1559357D01*
X-1758026Y+1559357D01*
X-1799687Y+1601018D01*
X-1799687Y+1659934D01*
X-1758026Y+1701595D01*
X-1699110Y+1701595D01*
X-1674236Y+1676720D01*
X-1490489Y+1860467D01*
X-1490489Y+1940499D01*
X-1269511Y+1940499D01*
X-1269511Y+1813501D01*
G37*
G36*
X-4210489Y+1566501D02*
X-4210489Y+1693499D01*
X-3989511Y+1693499D01*
X-3989511Y+1566501D01*
X-4210489Y+1566501D01*
G37*
G36*
X-3670489Y+1820501D02*
X-3670489Y+1947499D01*
X-3449511Y+1947499D01*
X-3449511Y+1820501D01*
X-3670489Y+1820501D01*
G37*
%LPD*%
G36*
X-6600000Y+3093258D02*
X-6616364Y+3109622D01*
X-6642666Y+3109622D01*
X-6661265Y+3091023D01*
X-6661265Y+3064721D01*
X-6642666Y+3046122D01*
X-6616364Y+3046122D01*
X-6600000Y+3062486D01*
X-6600000Y+461975D01*
X-6631044Y+493019D01*
X-6732956Y+493019D01*
X-6805019Y+420956D01*
X-6805019Y+319044D01*
X-6732956Y+246981D01*
X-6631044Y+246981D01*
X-6600000Y+278025D01*
X-6600000Y-50000D01*
X-9399040Y-50000D01*
X-9399040Y+4750000D01*
X-6600000Y+4750000D01*
X-6600000Y+3093258D01*
G37*
%LPC*%
G36*
X-9162269Y+3717731D02*
X-9162269Y+4482269D01*
X-8397731Y+4482269D01*
X-8397731Y+3717731D01*
X-9162269Y+3717731D01*
G37*
G36*
X-7929101Y+3942519D02*
X-6962191Y+3942519D01*
X-6789153Y+3769481D01*
X-6789153Y+3463029D01*
X-6629971Y+3463029D01*
X-6629971Y+3236971D01*
X-6808881Y+3236971D01*
X-6808881Y+2543029D01*
X-6639971Y+2543029D01*
X-6639971Y+2316971D01*
X-6797101Y+2316971D01*
X-6797101Y+2093374D01*
X-6961594Y+1928881D01*
X-8231683Y+1928881D01*
X-8485381Y+1675183D01*
X-8485381Y+1531921D01*
X-8754619Y+1531921D01*
X-8754619Y+1750359D01*
X-8611357Y+1750359D01*
X-8290597Y+2071119D01*
X-7020508Y+2071119D01*
X-6939339Y+2152288D01*
X-6939339Y+2316971D01*
X-7120029Y+2316971D01*
X-7120029Y+2543029D01*
X-6951119Y+2543029D01*
X-6951119Y+3236971D01*
X-7110029Y+3236971D01*
X-7110029Y+3463029D01*
X-6931391Y+3463029D01*
X-6931391Y+3710567D01*
X-7021105Y+3800281D01*
X-7929101Y+3800281D01*
X-7929101Y+3762181D01*
X-8097763Y+3762181D01*
X-8547063Y+3312881D01*
X-8810739Y+3312881D01*
X-8866620Y+3257000D01*
X-8795381Y+3185761D01*
X-8795381Y+3074239D01*
X-8874239Y+2995381D01*
X-8985761Y+2995381D01*
X-9064619Y+3074239D01*
X-9064619Y+3185761D01*
X-8993380Y+3257000D01*
X-9064619Y+3328239D01*
X-9064619Y+3439761D01*
X-8985761Y+3518619D01*
X-8874239Y+3518619D01*
X-8810739Y+3455119D01*
X-8605977Y+3455119D01*
X-8249139Y+3811957D01*
X-8249139Y+3980619D01*
X-7929101Y+3980619D01*
X-7929101Y+3942519D01*
G37*
G36*
X-6915719Y+4402411D02*
X-6915719Y+4414976D01*
X-6936233Y+4435490D01*
X-6936233Y+4494406D01*
X-6894572Y+4536067D01*
X-6835656Y+4536067D01*
X-6793995Y+4494406D01*
X-6793995Y+4435490D01*
X-6824281Y+4405204D01*
X-6824281Y+4363029D01*
X-6629971Y+4363029D01*
X-6629971Y+4136971D01*
X-7110029Y+4136971D01*
X-7110029Y+4363029D01*
X-7077489Y+4363029D01*
X-7160893Y+4446433D01*
X-7870711Y+4446433D01*
X-7929101Y+4388043D01*
X-7929101Y+4219381D01*
X-8249139Y+4219381D01*
X-8249139Y+4437819D01*
X-8080477Y+4437819D01*
X-7929625Y+4588671D01*
X-7101979Y+4588671D01*
X-6915719Y+4402411D01*
G37*
G36*
X-7740029Y+3236971D02*
X-7740029Y+3463029D01*
X-7259971Y+3463029D01*
X-7259971Y+3236971D01*
X-7740029Y+3236971D01*
G37*
G36*
X-7740029Y+4136971D02*
X-7740029Y+4363029D01*
X-7259971Y+4363029D01*
X-7259971Y+4136971D01*
X-7740029Y+4136971D01*
G37*
G36*
X-8795381Y+2639761D02*
X-8795381Y+2528239D01*
X-8866620Y+2457000D01*
X-8795381Y+2385761D01*
X-8795381Y+2274239D01*
X-8874239Y+2195381D01*
X-8985761Y+2195381D01*
X-9064619Y+2274239D01*
X-9064619Y+2385761D01*
X-8993380Y+2457000D01*
X-9064619Y+2528239D01*
X-9064619Y+2639761D01*
X-8985761Y+2718619D01*
X-8874239Y+2718619D01*
X-8795381Y+2639761D01*
G37*
G36*
X-7855461Y+1186481D02*
X-8124699Y+1186481D01*
X-8124699Y+1633519D01*
X-7855461Y+1633519D01*
X-7855461Y+1186481D01*
G37*
G36*
X-8485381Y+1519219D02*
X-8485381Y+1300781D01*
X-8754619Y+1300781D01*
X-8754619Y+1519219D01*
X-8485381Y+1519219D01*
G37*
G36*
X-6805386Y+1765621D02*
X-6805386Y+1706705D01*
X-6830786Y+1681305D01*
X-6830786Y+1643029D01*
X-6639971Y+1643029D01*
X-6639971Y+1416971D01*
X-6808881Y+1416971D01*
X-6808881Y+1364502D01*
X-7189033Y+984350D01*
X-8526066Y+984350D01*
X-8611357Y+1069641D01*
X-8754619Y+1069641D01*
X-8754619Y+1288079D01*
X-8485381Y+1288079D01*
X-8485381Y+1144817D01*
X-8467152Y+1126588D01*
X-7247947Y+1126588D01*
X-6957564Y+1416971D01*
X-7120029Y+1416971D01*
X-7120029Y+1643029D01*
X-6922224Y+1643029D01*
X-6922224Y+1681305D01*
X-6947624Y+1706705D01*
X-6947624Y+1765621D01*
X-6905963Y+1807282D01*
X-6847047Y+1807282D01*
X-6805386Y+1765621D01*
G37*
G36*
X-7750029Y+2316971D02*
X-7750029Y+2543029D01*
X-7269971Y+2543029D01*
X-7269971Y+2316971D01*
X-7750029Y+2316971D01*
G37*
G36*
X-7750029Y+1416971D02*
X-7750029Y+1643029D01*
X-7269971Y+1643029D01*
X-7269971Y+1416971D01*
X-7750029Y+1416971D01*
G37*
G36*
X-8583019Y+319044D02*
X-8583019Y+420956D01*
X-8510956Y+493019D01*
X-8409044Y+493019D01*
X-8336981Y+420956D01*
X-8336981Y+319044D01*
X-8409044Y+246981D01*
X-8510956Y+246981D01*
X-8583019Y+319044D01*
G37*
G36*
X-8329019Y+319044D02*
X-8329019Y+420956D01*
X-8256956Y+493019D01*
X-8155044Y+493019D01*
X-8082981Y+420956D01*
X-8082981Y+319044D01*
X-8155044Y+246981D01*
X-8256956Y+246981D01*
X-8329019Y+319044D01*
G37*
G36*
X-8075019Y+319044D02*
X-8075019Y+420956D01*
X-8002956Y+493019D01*
X-7901044Y+493019D01*
X-7828981Y+420956D01*
X-7828981Y+319044D01*
X-7901044Y+246981D01*
X-8002956Y+246981D01*
X-8075019Y+319044D01*
G37*
G36*
X-7821019Y+319044D02*
X-7821019Y+420956D01*
X-7748956Y+493019D01*
X-7647044Y+493019D01*
X-7574981Y+420956D01*
X-7574981Y+319044D01*
X-7647044Y+246981D01*
X-7748956Y+246981D01*
X-7821019Y+319044D01*
G37*
G36*
X-7567019Y+319044D02*
X-7567019Y+420956D01*
X-7494956Y+493019D01*
X-7393044Y+493019D01*
X-7320981Y+420956D01*
X-7320981Y+319044D01*
X-7393044Y+246981D01*
X-7494956Y+246981D01*
X-7567019Y+319044D01*
G37*
G36*
X-7313019Y+319044D02*
X-7313019Y+420956D01*
X-7240956Y+493019D01*
X-7139044Y+493019D01*
X-7066981Y+420956D01*
X-7066981Y+319044D01*
X-7139044Y+246981D01*
X-7240956Y+246981D01*
X-7313019Y+319044D01*
G37*
G36*
X-7059019Y+319044D02*
X-7059019Y+420956D01*
X-6986956Y+493019D01*
X-6885044Y+493019D01*
X-6812981Y+420956D01*
X-6812981Y+319044D01*
X-6885044Y+246981D01*
X-6986956Y+246981D01*
X-7059019Y+319044D01*
G37*
G36*
X-9195519Y+222445D02*
X-9195519Y+417555D01*
X-9057555Y+555519D01*
X-8862445Y+555519D01*
X-8724481Y+417555D01*
X-8724481Y+222445D01*
X-8862445Y+84481D01*
X-9057555Y+84481D01*
X-9195519Y+222445D01*
G37*
G36*
X-7453063Y+1302978D02*
X-7453063Y+1329280D01*
X-7434464Y+1347879D01*
X-7408162Y+1347879D01*
X-7389563Y+1329280D01*
X-7389563Y+1302978D01*
X-7408162Y+1284379D01*
X-7434464Y+1284379D01*
X-7453063Y+1302978D01*
G37*
G36*
X-6819514Y+910732D02*
X-6819514Y+937034D01*
X-6800915Y+955633D01*
X-6774613Y+955633D01*
X-6756014Y+937034D01*
X-6756014Y+910732D01*
X-6774613Y+892133D01*
X-6800915Y+892133D01*
X-6819514Y+910732D01*
G37*
G36*
X-6676786Y+3614750D02*
X-6676786Y+3641052D01*
X-6658187Y+3659651D01*
X-6631885Y+3659651D01*
X-6613286Y+3641052D01*
X-6613286Y+3614750D01*
X-6631885Y+3596151D01*
X-6658187Y+3596151D01*
X-6676786Y+3614750D01*
G37*
G36*
X-6676003Y+4013629D02*
X-6676003Y+4039931D01*
X-6657404Y+4058530D01*
X-6631102Y+4058530D01*
X-6612503Y+4039931D01*
X-6612503Y+4013629D01*
X-6631102Y+3995030D01*
X-6657404Y+3995030D01*
X-6676003Y+4013629D01*
G37*
G36*
X-6676633Y+4675972D02*
X-6676633Y+4702274D01*
X-6658034Y+4720873D01*
X-6631732Y+4720873D01*
X-6613133Y+4702274D01*
X-6613133Y+4675972D01*
X-6631732Y+4657373D01*
X-6658034Y+4657373D01*
X-6676633Y+4675972D01*
G37*
%LPD*%
G36*
X-3274319Y+3649663D02*
X-2914035Y+3649663D01*
X-2866921Y+3602549D01*
X-3071039Y+3602549D01*
X-3071039Y+3518617D01*
X-3077211Y+3512445D01*
X-3128416Y+3512445D01*
X-3153816Y+3537845D01*
X-3212732Y+3537845D01*
X-3254393Y+3496184D01*
X-3254393Y+3437268D01*
X-3227083Y+3409958D01*
X-3238672Y+3409958D01*
X-3264072Y+3435358D01*
X-3322988Y+3435358D01*
X-3364649Y+3393697D01*
X-3364649Y+3334781D01*
X-3322988Y+3293120D01*
X-3264072Y+3293120D01*
X-3238672Y+3318520D01*
X-3153533Y+3318520D01*
X-3192595Y+3279458D01*
X-3192595Y+3220542D01*
X-3150934Y+3178881D01*
X-3092018Y+3178881D01*
X-3071039Y+3199860D01*
X-3071039Y+3167451D01*
X-2955719Y+3167451D01*
X-2955719Y+2993071D01*
X-2960730Y+2988060D01*
X-2974850Y+3002180D01*
X-3033766Y+3002180D01*
X-3075427Y+2960519D01*
X-3075427Y+2901603D01*
X-3071039Y+2897215D01*
X-3071039Y+2737451D01*
X-2748961Y+2737451D01*
X-2748961Y+2774281D01*
X-2659497Y+2774281D01*
X-2602620Y+2717404D01*
X-2602620Y+2547179D01*
X-2656519Y+2547179D01*
X-2656519Y+2379541D01*
X-2540837Y+2379541D01*
X-2511296Y+2350000D01*
X-3450000Y+2350000D01*
X-3450000Y+3650000D01*
X-3274656Y+3650000D01*
X-3274319Y+3649663D01*
G37*
%LPC*%
G36*
X-3050357Y+2682434D02*
X-3050357Y+2660013D01*
X-3022893Y+2632549D01*
X-2983883Y+2632549D01*
X-2983883Y+2653908D01*
X-2942222Y+2695569D01*
X-2883306Y+2695569D01*
X-2841645Y+2653908D01*
X-2841645Y+2632549D01*
X-2748961Y+2632549D01*
X-2748961Y+2467451D01*
X-3071039Y+2467451D01*
X-3071039Y+2551383D01*
X-3101513Y+2581857D01*
X-3150934Y+2581857D01*
X-3192595Y+2623518D01*
X-3192595Y+2682434D01*
X-3150934Y+2724095D01*
X-3092018Y+2724095D01*
X-3050357Y+2682434D01*
G37*
%LPD*%
G36*
X-2575719Y+3641063D02*
X-2575719Y+3429225D01*
X-2583998Y+3437504D01*
X-2642914Y+3437504D01*
X-2670460Y+3409958D01*
X-3139465Y+3409958D01*
X-3128416Y+3421007D01*
X-3039337Y+3421007D01*
X-3022893Y+3437451D01*
X-2748961Y+3437451D01*
X-2748961Y+3602549D01*
X-2769282Y+3602549D01*
X-2769282Y+3634222D01*
X-2785060Y+3650000D01*
X-2584656Y+3650000D01*
X-2575719Y+3641063D01*
G37*
G36*
X-4757949Y+3079041D02*
X-4757949Y+2651963D01*
X-4765290Y+2659304D01*
X-4824206Y+2659304D01*
X-4865867Y+2617643D01*
X-4865867Y+2558727D01*
X-4855089Y+2547949D01*
X-5144281Y+2547949D01*
X-5144281Y+2574696D01*
X-5259576Y+2689991D01*
X-5259576Y+2725912D01*
X-5301237Y+2767573D01*
X-5360153Y+2767573D01*
X-5382051Y+2745675D01*
X-5382051Y+3014281D01*
X-5374546Y+3014281D01*
X-5375202Y+3013625D01*
X-5375202Y+2954709D01*
X-5333541Y+2913048D01*
X-5274625Y+2913048D01*
X-5253554Y+2934119D01*
X-5253554Y+2910527D01*
X-5211893Y+2868866D01*
X-5154161Y+2868866D01*
X-5161916Y+2861111D01*
X-5161916Y+2802195D01*
X-5120255Y+2760534D01*
X-5061339Y+2760534D01*
X-5019678Y+2802195D01*
X-5019678Y+2861111D01*
X-5035453Y+2876886D01*
X-5035453Y+2958195D01*
X-5249309Y+3172051D01*
X-4757949Y+3172051D01*
X-4757949Y+3079041D01*
G37*
D10*
X-1923360Y+2080000D02*
X-1923360Y+1880360D01*
X-1920000Y+1877000D01*
X-2207000Y+1877000D01*
X-2210000Y+1880000D01*
X-2346640Y+2016640D01*
X-2346640Y+2080000D01*
X-1710000Y+2080000D02*
X-1710000Y+1822978D01*
X-1783974Y+1749004D01*
X-1899004Y+1749004D01*
X-1900000Y+1750000D01*
X-1920000Y+1750000D01*
X-3050000Y+1750000D02*
X-2885603Y+1750000D01*
X-2610800Y+2024803D01*
X-2560000Y+2080000D01*
X-2557752Y+2082248D01*
X-2557752Y+2199200D01*
X-2560000Y+2250000D01*
X-1920000Y+1750000D02*
X-2115764Y+1750000D01*
X-2148324Y+1717440D01*
X-2210000Y+1666640D01*
X-2270000Y+4448000D02*
X-2550000Y+4448000D01*
X-5700000Y+2686640D02*
X-5586640Y+2686640D01*
X-5555122Y+2655122D01*
X-5465065Y+2655122D01*
X-5490000Y+2660000D01*
X-5700000Y+2510000D02*
X-5630000Y+2580000D01*
X-5490000Y+2580000D01*
X-6120000Y+2330000D02*
X-5940000Y+2510000D01*
X-5700000Y+2510000D01*
X-6120000Y+2838000D02*
X-5968640Y+2686640D01*
X-5700000Y+2686640D01*
X-4950000Y+3280000D02*
X-4950000Y+3500000D01*
X-5030000Y+3280000D02*
X-5030000Y+3349865D01*
X-5116946Y+3436811D01*
X-5116946Y+3678715D01*
X-4985661Y+3810000D01*
X-4950000Y+3810000D01*
X-4556640Y+1990000D02*
X-4749911Y+2183271D01*
X-4844027Y+2183271D01*
X-4883271Y+2183271D01*
X-4950000Y+2250000D01*
X-4950000Y+2365070D01*
X-4950000Y+2440000D01*
X-4546640Y+1680000D02*
X-4471652Y+1754988D01*
X-4471652Y+2071652D01*
X-4636188Y+2236188D01*
X-4818549Y+2236188D01*
X-4863626Y+2281265D01*
X-4863626Y+2298904D01*
X-4863626Y+2433626D01*
X-4870000Y+2440000D01*
X-4770000Y+1990000D02*
X-4900000Y+1990000D01*
X-5056640Y+1990000D01*
X-4760000Y+1680000D02*
X-4900000Y+1680000D01*
X-5056640Y+1680000D01*
X-4770000Y+1360000D02*
X-4900000Y+1360000D01*
X-5056640Y+1360000D01*
X-4794748Y+2588185D02*
X-4794748Y+2444748D01*
X-4790000Y+2440000D01*
D11*
X-5270000Y+1360000D02*
X-5270000Y+1680000D01*
X-5270000Y+1990000D01*
D10*
X-1380000Y+1877000D02*
X-1409300Y+1877000D01*
X-1655824Y+1630476D01*
X-1728568Y+1630476D01*
X-2686372Y+1639569D02*
X-2575941Y+1750000D01*
X-2510000Y+1750000D01*
X-3740262Y+2906188D02*
X-3580812Y+2906188D01*
X-3570000Y+2917000D01*
X-1920000Y+1496000D02*
X-2196000Y+1496000D01*
X-2200000Y+1500000D01*
X-2837980Y+1497932D02*
X-3048068Y+1497932D01*
X-3050000Y+1496000D01*
X-4265049Y+2655765D02*
X-4117235Y+2655765D01*
X-4110000Y+2663000D01*
X-1710000Y+2080000D02*
X-1710000Y+3380000D01*
X-2270000Y+3940000D01*
X-2815000Y+2550000D02*
X-2815000Y+2285000D01*
X-2900000Y+2200000D01*
X-2966367Y+2133633D01*
X-3193945Y+2133633D01*
X-3320786Y+2006792D01*
X-3320786Y+1997279D01*
X-3320786Y+1727741D01*
X-3222484Y+1629439D01*
X-3056439Y+1629439D01*
X-3050000Y+1623000D01*
X-2510000Y+1623000D02*
X-2477388Y+1623000D01*
X-2388502Y+1711886D01*
X-2388502Y+1939443D01*
X-2454701Y+2005642D01*
X-2454701Y+2358061D01*
X-2560000Y+2463360D01*
X-2815000Y+2820000D02*
X-2640560Y+2820000D01*
X-2556901Y+2736341D01*
X-2556901Y+2466459D01*
X-2560000Y+2463360D01*
X-2815000Y+2550000D02*
X-2815000Y+2627259D01*
X-2910393Y+2722652D01*
X-2910393Y+2819607D01*
X-2910000Y+2820000D01*
X-3005000Y+2550000D02*
X-3107976Y+2652976D01*
X-3121476Y+2652976D01*
X-4850000Y+3500000D02*
X-4950000Y+3500000D01*
X-3121476Y+3250000D02*
X-3005000Y+3250000D01*
X-3800000Y+3500000D02*
X-3709180Y+3500000D01*
X-3693160Y+3516020D01*
X-3005000Y+2820000D02*
X-3005000Y+2930369D01*
X-3004308Y+2931061D01*
X-4851917Y+3807813D02*
X-4947813Y+3807813D01*
X-4950000Y+3810000D01*
X-3183274Y+3466726D02*
X-3058274Y+3466726D01*
X-3005000Y+3520000D01*
X-3550000Y+3572798D02*
X-3587202Y+3610000D01*
X-3693160Y+3610000D01*
X-4100000Y+1757000D02*
X-4043000Y+1757000D01*
X-3950000Y+1850000D01*
X-3950000Y+2086640D01*
X-3953360Y+2090000D01*
X-3953360Y+2286640D01*
X-3950000Y+2290000D01*
X-3560000Y+1630000D02*
X-3529617Y+1630000D01*
X-3400000Y+1759617D01*
X-3400000Y+2000000D01*
X-3490000Y+2090000D01*
X-3740000Y+2090000D01*
X-3736640Y+2290000D02*
X-3736640Y+2490000D01*
X-3736640Y+2663360D01*
X-3610000Y+2790000D01*
X-3570000Y+2790000D01*
X-3950000Y+2490000D02*
X-3950000Y+2790244D01*
X-4076756Y+2917000D01*
X-4110000Y+2917000D01*
X-4290000Y+2910000D02*
X-4117000Y+2910000D01*
X-4110000Y+2917000D01*
X-4650000Y+3060000D02*
X-4518437Y+3060000D01*
X-4452042Y+2993605D01*
X-4452042Y+2597020D01*
X-4280754Y+2425732D01*
X-4248556Y+2393534D01*
X-3913696Y+2393534D01*
X-3913488Y+2393326D01*
X-3890340Y+2393326D01*
X-3845590Y+2348576D01*
X-3845590Y+2325428D01*
X-3845590Y+2235590D01*
X-3740000Y+2130000D01*
X-3740000Y+2090000D01*
X-3786640Y+4460000D02*
X-3550000Y+4460000D01*
X-3546680Y+4456680D01*
X-3543360Y+4460000D01*
X-2815000Y+3520000D02*
X-2815000Y+3615284D01*
X-2822860Y+3623144D01*
X-2895098Y+3695382D01*
X-2916070Y+3695382D01*
X-3255382Y+3695382D01*
X-3550000Y+3990000D01*
X-3550000Y+4453360D01*
X-3546680Y+4456680D01*
X-2910000Y+3250000D02*
X-2910000Y+2940000D01*
X-2908213Y+2940000D01*
X-2912764Y+2624450D02*
X-2910263Y+2621949D01*
X-2910263Y+2599530D01*
X-2910000Y+2550000D01*
X-2815000Y+3250000D02*
X-2620000Y+3250000D01*
X-2530000Y+3340000D01*
X-2530000Y+3660000D01*
X-2695435Y+3825435D01*
X-2695435Y+4311726D01*
X-2806229Y+4422520D01*
X-2818460Y+4422520D01*
X-2830000Y+4448000D01*
X-4110000Y+2790000D02*
X-4270000Y+2790000D01*
X-4280000Y+2780000D01*
X-3293530Y+3364239D02*
X-2621952Y+3364239D01*
X-2619806Y+3366385D01*
X-2613456Y+3366385D01*
X-4266331Y+1488022D02*
X-4251353Y+1503000D01*
X-4100000Y+1503000D01*
X-3733245Y+1496384D02*
X-4022530Y+1496384D01*
X-4100000Y+1503000D01*
X-4022530Y+1496384D02*
X-4093384Y+1496384D01*
X-4100000Y+1503000D01*
X-3734425Y+1639569D02*
X-3736084Y+1637910D01*
X-3734425Y+1639569D02*
X-3616994Y+1757000D01*
X-3560000Y+1757000D01*
D12*
X-8089120Y+3871400D02*
X-8576520Y+3384000D01*
X-8930000Y+3384000D01*
X-8089120Y+3871400D02*
X-6991648Y+3871400D01*
X-6860272Y+3740024D01*
X-6860272Y+3359728D01*
X-6870000Y+3350000D01*
X-6880000Y+2430000D02*
X-6880000Y+3340000D01*
X-6870000Y+3350000D01*
X-8620000Y+1641140D02*
X-8261140Y+2000000D01*
X-6991051Y+2000000D01*
X-6868220Y+2122831D01*
X-6868220Y+2418220D01*
X-6880000Y+2430000D01*
X-8620000Y+1178860D02*
X-8496609Y+1055469D01*
X-7218490Y+1055469D01*
X-6880000Y+1393959D01*
X-6880000Y+1530000D01*
D10*
X-4003360Y+4150000D02*
X-4003360Y+4456640D01*
X-4000000Y+4460000D01*
X-3790000Y+4150000D02*
X-3670952Y+4150000D01*
X-3670905Y+4149953D01*
X-4540685Y+3415995D02*
X-4540685Y+3642592D01*
X-4540593Y+3642684D01*
X-4540593Y+3643875D01*
X-4736640Y+3810000D02*
X-4736640Y+3500000D01*
X-6330000Y+4480000D02*
X-6330000Y+4632084D01*
X-6336064Y+4638148D01*
X-6330000Y+4480000D02*
X-6123360Y+4480000D01*
X-6123360Y+4640666D01*
X-6122591Y+4641435D01*
X-6870000Y+4250000D02*
X-6870000Y+4256116D01*
X-6870000Y+4460062D01*
X-6865114Y+4464948D01*
D12*
X-8089120Y+4328600D02*
X-7900168Y+4517552D01*
X-7131436Y+4517552D01*
X-6870000Y+4256116D01*
D10*
X-6330000Y+4266640D02*
X-6330000Y+3326974D01*
X-6181816Y+3178790D01*
X-5602052Y+3178790D01*
X-5375804Y+3405038D01*
X-5375804Y+3412108D01*
X-5172533Y+3412108D01*
X-5110000Y+3349575D01*
X-5110000Y+3280000D01*
X-5910000Y+4480000D02*
X-5910000Y+4130000D01*
X-5910000Y+3730000D02*
X-5910000Y+3380000D01*
X-3925154Y+3819253D02*
X-3925154Y+3713286D01*
X-3931920Y+3706520D01*
X-2910000Y+3520000D02*
X-2910000Y+3557209D01*
X-2978504Y+3625713D01*
X-3162888Y+3625713D01*
X-3492147Y+3625713D01*
X-3572954Y+3706520D01*
X-3693160Y+3706520D01*
X-3931920Y+3516020D02*
X-3931920Y+3370198D01*
X-3934903Y+3367215D01*
X-5269990Y+3504046D02*
X-5375745Y+3504046D01*
X-5636004Y+3243787D01*
X-5636004Y+3249840D01*
X-6876505Y+1736163D02*
X-6876505Y+1533495D01*
X-6880000Y+1530000D01*
X-5350000Y+3280000D02*
X-5350000Y+3208086D01*
X-5081172Y+2939258D01*
X-5081172Y+2831653D01*
X-5090797Y+2831653D01*
X-5490000Y+3140000D02*
X-5359438Y+3140000D01*
X-5170929Y+2951491D01*
X-5182435Y+2939985D01*
X-5490000Y+3060000D02*
X-5343994Y+3060000D01*
X-5286122Y+3002128D01*
X-5304083Y+2984167D01*
X-4619453Y+2549453D02*
X-4650000Y+2580000D01*
X-4556640Y+1360000D02*
X-4424722Y+1491918D01*
X-4424722Y+2354722D01*
X-4619453Y+2549453D01*
X-5030000Y+2440000D02*
X-5030000Y+2276719D01*
X-5118133Y+2188586D01*
X-5268463Y+2188586D01*
X-5424464Y+2032585D01*
X-5424464Y+1856728D01*
X-5509556Y+1771636D01*
X-5678276Y+1771636D01*
X-5680000Y+1773360D01*
X-5780384Y+1773360D01*
X-5926507Y+1919483D01*
X-6160517Y+1919483D01*
X-6300000Y+1780000D01*
X-5110000Y+2440000D02*
X-5110000Y+2297912D01*
X-5173701Y+2234211D01*
X-5287409Y+2234211D01*
X-5504508Y+2017112D01*
X-5612660Y+2017112D01*
X-6405818Y+2017112D01*
X-6534854Y+1888076D01*
X-6534854Y+1434854D01*
X-6300000Y+1200000D01*
X-7421313Y+1316129D02*
X-7421313Y+1447619D01*
X-7423684Y+1449990D01*
X-7510000Y+1530000D01*
X-5356295Y+2383548D02*
X-5350000Y+2440000D01*
X-6090000Y+3380000D02*
X-6090000Y+3598802D01*
X-6005974Y+3682828D01*
X-6005974Y+3838715D01*
X-5341123Y+2586619D02*
X-5341123Y+2580566D01*
X-5270000Y+2509443D01*
X-5270000Y+2440000D01*
X-5330695Y+2696454D02*
X-5190000Y+2555759D01*
X-5190000Y+2440000D01*
X-5270000Y+1680000D02*
X-5560000Y+1680000D01*
X-5680000Y+1560000D01*
D11*
X-5270000Y+1360000D02*
X-5706117Y+923883D01*
X-6787764Y+923883D01*
D10*
X-5700000Y+2900000D02*
X-5881358Y+3081358D01*
X-6385185Y+3081358D01*
X-6626029Y+3081358D01*
X-6629515Y+3077872D01*
X-6090000Y+3380000D02*
X-6214387Y+3380000D01*
X-6216477Y+3377910D01*
X-6090000Y+4130000D02*
X-6259334Y+4130000D01*
X-6262469Y+4133135D01*
X-6258897Y+4133135D01*
X-3693160Y+3706520D02*
X-3887698Y+3901058D01*
X-4235184Y+3901058D01*
X-5490000Y+2900000D02*
X-5559439Y+2900000D01*
X-5597899Y+2861540D01*
X-5597899Y+2778180D01*
X-5559719Y+2740000D01*
X-5490000Y+2740000D01*
X-5490000Y+2980000D02*
X-5558633Y+2980000D01*
X-5569119Y+2990486D01*
X-5605831Y+2990486D01*
X-4650000Y+2660000D02*
X-4587308Y+2660000D01*
X-4585738Y+2661570D01*
X-4545851Y+2661570D01*
X-3931920Y+3612540D02*
X-3818817Y+3612540D01*
X-3814585Y+3616772D01*
X-3791979Y+3616772D01*
X-3702231Y+3706520D01*
X-3693160Y+3706520D01*
X-6086640Y+1560000D02*
X-6086640Y+1463360D01*
X-6300000Y+1250000D01*
X-6300000Y+1200000D01*
X-6450000Y+1550000D02*
X-6310000Y+1550000D01*
X-6300000Y+1560000D01*
X-3330000Y+4460000D02*
X-3330000Y+4580000D01*
X-3485797Y+4735797D01*
X-4269818Y+4735797D01*
X-4290000Y+3123360D02*
X-4290000Y+3610000D01*
X-4200000Y+3700000D01*
X-3938440Y+3700000D01*
X-3931920Y+3706520D01*
X-6123360Y+3730000D02*
X-6123360Y+3889640D01*
X-6013000Y+4000000D01*
X-4594875Y+4000000D01*
X-4469502Y+3874627D01*
X-4469502Y+3236816D01*
X-4516849Y+2549453D02*
X-4619453Y+2549453D01*
X-4736640Y+3810000D02*
X-4736640Y+3812033D01*
X-4846562Y+3921955D01*
X-5898274Y+3921955D01*
X-5922580Y+3897649D01*
X-4003360Y+4150000D02*
X-4269183Y+4150000D01*
X-4367662Y+4051521D01*
X-4367662Y+3383694D01*
X-4369579Y+3381777D01*
D13*
X-4900000Y+1990000D03*
X-4900000Y+1680000D03*
X-4900000Y+1360000D03*
X-4794748Y+2588185D03*
X-1728568Y+1630476D03*
X-2686372Y+1639569D03*
X-3740262Y+2906188D03*
X-2200000Y+1500000D03*
X-2837980Y+1497932D03*
X-4265049Y+2655765D03*
X-3121476Y+2652976D03*
X-4850000Y+3500000D03*
X-3121476Y+3250000D03*
X-3800000Y+3500000D03*
X-3004308Y+2931061D03*
X-4851917Y+3807813D03*
X-3183274Y+3466726D03*
X-3550000Y+3572798D03*
X-2908213Y+2940000D03*
X-2912764Y+2624450D03*
X-4280000Y+2780000D03*
X-3293530Y+3364239D03*
X-2613456Y+3366385D03*
X-3733245Y+1496384D03*
X-3734425Y+1639569D03*
X-3736084Y+1637910D03*
X-4266331Y+1488022D03*
X-3670905Y+4149953D03*
X-4540685Y+3415995D03*
X-4540593Y+3643875D03*
X-6336064Y+4638148D03*
X-6122591Y+4641435D03*
X-6865114Y+4464948D03*
X-3925154Y+3819253D03*
X-5269990Y+3504046D03*
X-5636004Y+3249840D03*
X-6876505Y+1736163D03*
X-5090797Y+2831653D03*
X-5182435Y+2939985D03*
X-5304083Y+2984167D03*
X-7421313Y+1316129D03*
X-5356295Y+2383548D03*
X-6005974Y+3838715D03*
X-5341123Y+2586619D03*
X-5330695Y+2696454D03*
X-6787764Y+923883D03*
X-6629515Y+3077872D03*
X-6216477Y+3377910D03*
X-6645036Y+3627901D03*
X-6258897Y+4133135D03*
X-6644253Y+4026780D03*
X-6644883Y+4689123D03*
X-4235184Y+3901058D03*
X-5605831Y+2990486D03*
X-4545851Y+2661570D03*
X-6450000Y+1550000D03*
X-4269818Y+4735797D03*
X-4469502Y+3236816D03*
X-4516849Y+2549453D03*
X-5922580Y+3897649D03*
X-6428834Y+3913696D03*
X-4369579Y+3381777D03*
X-3934903Y+3367215D03*
D10*
X-5600000Y+3022236D02*
X-5618982Y+3022236D01*
X-5637581Y+3003637D01*
X-5637581Y+2983819D01*
X-5796519Y+2983819D01*
X-5796519Y+2816181D01*
X-5643618Y+2816181D01*
X-5643618Y+2770459D01*
X-5796519Y+2770459D01*
X-5796519Y+2732359D01*
X-5949703Y+2732359D01*
X-5992482Y+2775138D01*
X-5985381Y+2782239D01*
X-5985381Y+2893761D01*
X-6064239Y+2972619D01*
X-6175761Y+2972619D01*
X-6254619Y+2893761D01*
X-6254619Y+2782239D01*
X-6175761Y+2703381D01*
X-6064239Y+2703381D01*
X-6057138Y+2710482D01*
X-5987577Y+2640921D01*
X-5796519Y+2640921D01*
X-5796519Y+2602821D01*
X-5671835Y+2602821D01*
X-5680837Y+2593819D01*
X-5796519Y+2593819D01*
X-5796519Y+2555719D01*
X-5958937Y+2555719D01*
X-6057138Y+2457518D01*
X-6064239Y+2464619D01*
X-6175761Y+2464619D01*
X-6254619Y+2385761D01*
X-6254619Y+2274239D01*
X-6175761Y+2195381D01*
X-6064239Y+2195381D01*
X-5985381Y+2274239D01*
X-5985381Y+2385761D01*
X-5992482Y+2392862D01*
X-5921063Y+2464281D01*
X-5796519Y+2464281D01*
X-5796519Y+2426181D01*
X-5603481Y+2426181D01*
X-5603481Y+2534281D01*
X-5600000Y+2534281D01*
X-5600000Y+2062831D01*
X-6400000Y+2062831D01*
X-6400000Y+3100000D01*
X-5600000Y+3100000D01*
X-5600000Y+3022236D01*
X-5796519Y+2212821D02*
X-5796519Y+2380459D01*
X-5603481Y+2380459D01*
X-5603481Y+2212821D01*
X-5796519Y+2212821D01*
X-5700000Y+2983819D02*
X-5700000Y+2900000D01*
X-5700000Y+2816181D02*
X-5700000Y+2900000D01*
X-5796519Y+2900000D02*
X-5700000Y+2900000D01*
X-5700000Y+2212821D02*
X-5700000Y+2296640D01*
X-5700000Y+2380459D02*
X-5700000Y+2296640D01*
X-5603481Y+2296640D02*
X-5700000Y+2296640D01*
X-5796519Y+2296640D02*
X-5700000Y+2296640D01*
X-1150000Y+1250000D02*
X-4400000Y+1250000D01*
X-4400000Y+1451984D01*
X-4379004Y+1472980D01*
X-4379004Y+2100000D01*
X-4037179Y+2100000D01*
X-4037179Y+1993481D01*
X-3995719Y+1993481D01*
X-3995719Y+1947499D01*
X-4210489Y+1947499D01*
X-4210489Y+1820501D01*
X-4044155Y+1820501D01*
X-4044157Y+1820499D01*
X-4210489Y+1820499D01*
X-4210489Y+1693501D01*
X-3989511Y+1693501D01*
X-3989511Y+1745833D01*
X-3904281Y+1831063D01*
X-3904281Y+1993481D01*
X-3869541Y+1993481D01*
X-3869541Y+2100000D01*
X-3823819Y+2100000D01*
X-3823819Y+1993481D01*
X-3656181Y+1993481D01*
X-3656181Y+2044281D01*
X-3508937Y+2044281D01*
X-3445719Y+1981063D01*
X-3445719Y+1778554D01*
X-3449511Y+1774762D01*
X-3449511Y+1820499D01*
X-3670489Y+1820499D01*
X-3670489Y+1768161D01*
X-3727962Y+1710688D01*
X-3763883Y+1710688D01*
X-3807203Y+1667368D01*
X-3807203Y+1608452D01*
X-3765542Y+1566791D01*
X-3763415Y+1566791D01*
X-3788103Y+1542103D01*
X-3989511Y+1542103D01*
X-3989511Y+1566499D01*
X-4210489Y+1566499D01*
X-4210489Y+1548719D01*
X-4226451Y+1548719D01*
X-4236873Y+1559141D01*
X-4295789Y+1559141D01*
X-4337450Y+1517480D01*
X-4337450Y+1458564D01*
X-4295789Y+1416903D01*
X-4236873Y+1416903D01*
X-4210489Y+1443287D01*
X-4210489Y+1439501D01*
X-3989511Y+1439501D01*
X-3989511Y+1450665D01*
X-3788103Y+1450665D01*
X-3762703Y+1425265D01*
X-3703787Y+1425265D01*
X-3670489Y+1458563D01*
X-3670489Y+1439501D01*
X-3449511Y+1439501D01*
X-3449511Y+1566499D01*
X-3670489Y+1566499D01*
X-3670489Y+1534205D01*
X-3703787Y+1567503D01*
X-3705914Y+1567503D01*
X-3670489Y+1602928D01*
X-3670489Y+1566501D01*
X-3449511Y+1566501D01*
X-3449511Y+1645450D01*
X-3354281Y+1740680D01*
X-3354281Y+2018937D01*
X-3435344Y+2100000D01*
X-2643819Y+2100000D01*
X-2643819Y+2056455D01*
X-2643953Y+2056306D01*
X-2904540Y+1795719D01*
X-2939511Y+1795719D01*
X-2939511Y+1813499D01*
X-3160489Y+1813499D01*
X-3160489Y+1686501D01*
X-2939511Y+1686501D01*
X-2939511Y+1704281D01*
X-2866666Y+1704281D01*
X-2587466Y+1983481D01*
X-2497196Y+1983481D01*
X-2454214Y+1940499D01*
X-2620489Y+1940499D01*
X-2620489Y+1813501D01*
X-2434221Y+1813501D01*
X-2434221Y+1813499D01*
X-2620489Y+1813499D01*
X-2620489Y+1770108D01*
X-2679909Y+1710688D01*
X-2715830Y+1710688D01*
X-2757491Y+1669027D01*
X-2757491Y+1610111D01*
X-2715830Y+1568450D01*
X-2656914Y+1568450D01*
X-2620489Y+1604875D01*
X-2620489Y+1559501D01*
X-2399511Y+1559501D01*
X-2399511Y+1636221D01*
X-2342783Y+1692949D01*
X-2342783Y+1948127D01*
X-2306519Y+1911863D01*
X-2306519Y+1796181D01*
X-2113481Y+1796181D01*
X-2113481Y+1831281D01*
X-2030489Y+1831281D01*
X-2030489Y+1813501D01*
X-1809511Y+1813501D01*
X-1809511Y+1940499D01*
X-1877641Y+1940499D01*
X-1877641Y+1983481D01*
X-1839541Y+1983481D01*
X-1839541Y+2100000D01*
X-1793819Y+2100000D01*
X-1793819Y+1983481D01*
X-1755719Y+1983481D01*
X-1755719Y+1841915D01*
X-1802911Y+1794723D01*
X-1809511Y+1794723D01*
X-1809511Y+1813499D01*
X-2030489Y+1813499D01*
X-2030489Y+1795719D01*
X-2134701Y+1795719D01*
X-2178778Y+1751642D01*
X-2180288Y+1750459D01*
X-2306519Y+1750459D01*
X-2306519Y+1582821D01*
X-2113481Y+1582821D01*
X-2113481Y+1687627D01*
X-2096827Y+1704281D01*
X-2030489Y+1704281D01*
X-2030489Y+1686501D01*
X-1809511Y+1686501D01*
X-1809511Y+1703285D01*
X-1765037Y+1703285D01*
X-1664281Y+1804041D01*
X-1664281Y+1983481D01*
X-1626181Y+1983481D01*
X-1626181Y+2100000D01*
X-1150000Y+2100000D01*
X-1150000Y+1250000D01*
X-3160489Y+1813501D02*
X-3160489Y+1940499D01*
X-2939511Y+1940499D01*
X-2939511Y+1813501D01*
X-3160489Y+1813501D01*
X-3160489Y+1559501D02*
X-3160489Y+1686499D01*
X-2939511Y+1686499D01*
X-2939511Y+1559501D01*
X-3160489Y+1559501D01*
X-2766861Y+1527390D02*
X-2766861Y+1468474D01*
X-2808522Y+1426813D01*
X-2867438Y+1426813D01*
X-2892838Y+1452213D01*
X-2939511Y+1452213D01*
X-2939511Y+1432501D01*
X-3160489Y+1432501D01*
X-3160489Y+1559499D01*
X-2939511Y+1559499D01*
X-2939511Y+1543651D01*
X-2892838Y+1543651D01*
X-2867438Y+1569051D01*
X-2808522Y+1569051D01*
X-2766861Y+1527390D01*
X-2620489Y+1432501D02*
X-2620489Y+1559499D01*
X-2399511Y+1559499D01*
X-2399511Y+1432501D01*
X-2620489Y+1432501D01*
X-2030489Y+1559501D02*
X-2030489Y+1686499D01*
X-1809511Y+1686499D01*
X-1809511Y+1559501D01*
X-2030489Y+1559501D01*
X-2141142Y+1541719D02*
X-2030489Y+1541719D01*
X-2030489Y+1559499D01*
X-1809511Y+1559499D01*
X-1809511Y+1432501D01*
X-2030489Y+1432501D01*
X-2030489Y+1450281D01*
X-2149142Y+1450281D01*
X-2170542Y+1428881D01*
X-2229458Y+1428881D01*
X-2271119Y+1470542D01*
X-2271119Y+1529458D01*
X-2229458Y+1571119D01*
X-2170542Y+1571119D01*
X-2141142Y+1541719D01*
X-1490489Y+1432501D02*
X-1490489Y+1559499D01*
X-1269511Y+1559499D01*
X-1269511Y+1432501D01*
X-1490489Y+1432501D01*
X-1490489Y+1559501D02*
X-1490489Y+1686499D01*
X-1269511Y+1686499D01*
X-1269511Y+1559501D01*
X-1490489Y+1559501D01*
X-1269511Y+1813501D02*
X-1408143Y+1813501D01*
X-1408145Y+1813499D01*
X-1269511Y+1813499D01*
X-1269511Y+1686501D01*
X-1490489Y+1686501D01*
X-1490489Y+1731155D01*
X-1636887Y+1584757D01*
X-1673710Y+1584757D01*
X-1699110Y+1559357D01*
X-1758026Y+1559357D01*
X-1799687Y+1601018D01*
X-1799687Y+1659934D01*
X-1758026Y+1701595D01*
X-1699110Y+1701595D01*
X-1674236Y+1676720D01*
X-1490489Y+1860467D01*
X-1490489Y+1940499D01*
X-1269511Y+1940499D01*
X-1269511Y+1813501D01*
X-4210489Y+1566501D02*
X-4210489Y+1693499D01*
X-3989511Y+1693499D01*
X-3989511Y+1566501D01*
X-4210489Y+1566501D01*
X-3670489Y+1820501D02*
X-3670489Y+1947499D01*
X-3449511Y+1947499D01*
X-3449511Y+1820501D01*
X-3670489Y+1820501D01*
X-3050000Y+1559501D02*
X-3050000Y+1623000D01*
X-3050000Y+1686499D02*
X-3050000Y+1623000D01*
X-2939511Y+1623000D02*
X-3050000Y+1623000D01*
X-3160489Y+1623000D02*
X-3050000Y+1623000D01*
X-1920000Y+1559501D02*
X-1920000Y+1623000D01*
X-1920000Y+1686499D02*
X-1920000Y+1623000D01*
X-1809511Y+1623000D02*
X-1920000Y+1623000D01*
X-2030489Y+1623000D02*
X-1920000Y+1623000D01*
X-4100000Y+1566501D02*
X-4100000Y+1630000D01*
X-4100000Y+1693499D02*
X-4100000Y+1630000D01*
X-3989511Y+1630000D02*
X-4100000Y+1630000D01*
X-4210489Y+1630000D02*
X-4100000Y+1630000D01*
X-6600000Y+3093258D02*
X-6616364Y+3109622D01*
X-6642666Y+3109622D01*
X-6661265Y+3091023D01*
X-6661265Y+3064721D01*
X-6642666Y+3046122D01*
X-6616364Y+3046122D01*
X-6600000Y+3062486D01*
X-6600000Y+461975D01*
X-6631044Y+493019D01*
X-6732956Y+493019D01*
X-6805019Y+420956D01*
X-6805019Y+319044D01*
X-6732956Y+246981D01*
X-6631044Y+246981D01*
X-6600000Y+278025D01*
X-6600000Y-50000D01*
X-9399040Y-50000D01*
X-9399040Y+4750000D01*
X-6600000Y+4750000D01*
X-6600000Y+3093258D01*
X-9162269Y+3717731D02*
X-9162269Y+4482269D01*
X-8397731Y+4482269D01*
X-8397731Y+3717731D01*
X-9162269Y+3717731D01*
X-7929101Y+3942519D02*
X-6962191Y+3942519D01*
X-6789153Y+3769481D01*
X-6789153Y+3463029D01*
X-6629971Y+3463029D01*
X-6629971Y+3236971D01*
X-6808881Y+3236971D01*
X-6808881Y+2543029D01*
X-6639971Y+2543029D01*
X-6639971Y+2316971D01*
X-6797101Y+2316971D01*
X-6797101Y+2093374D01*
X-6961594Y+1928881D01*
X-8231683Y+1928881D01*
X-8485381Y+1675183D01*
X-8485381Y+1531921D01*
X-8754619Y+1531921D01*
X-8754619Y+1750359D01*
X-8611357Y+1750359D01*
X-8290597Y+2071119D01*
X-7020508Y+2071119D01*
X-6939339Y+2152288D01*
X-6939339Y+2316971D01*
X-7120029Y+2316971D01*
X-7120029Y+2543029D01*
X-6951119Y+2543029D01*
X-6951119Y+3236971D01*
X-7110029Y+3236971D01*
X-7110029Y+3463029D01*
X-6931391Y+3463029D01*
X-6931391Y+3710567D01*
X-7021105Y+3800281D01*
X-7929101Y+3800281D01*
X-7929101Y+3762181D01*
X-8097763Y+3762181D01*
X-8547063Y+3312881D01*
X-8810739Y+3312881D01*
X-8866620Y+3257000D01*
X-8795381Y+3185761D01*
X-8795381Y+3074239D01*
X-8874239Y+2995381D01*
X-8985761Y+2995381D01*
X-9064619Y+3074239D01*
X-9064619Y+3185761D01*
X-8993380Y+3257000D01*
X-9064619Y+3328239D01*
X-9064619Y+3439761D01*
X-8985761Y+3518619D01*
X-8874239Y+3518619D01*
X-8810739Y+3455119D01*
X-8605977Y+3455119D01*
X-8249139Y+3811957D01*
X-8249139Y+3980619D01*
X-7929101Y+3980619D01*
X-7929101Y+3942519D01*
X-6915719Y+4402411D02*
X-6915719Y+4414976D01*
X-6936233Y+4435490D01*
X-6936233Y+4494406D01*
X-6894572Y+4536067D01*
X-6835656Y+4536067D01*
X-6793995Y+4494406D01*
X-6793995Y+4435490D01*
X-6824281Y+4405204D01*
X-6824281Y+4363029D01*
X-6629971Y+4363029D01*
X-6629971Y+4136971D01*
X-7110029Y+4136971D01*
X-7110029Y+4363029D01*
X-7077489Y+4363029D01*
X-7160893Y+4446433D01*
X-7870711Y+4446433D01*
X-7929101Y+4388043D01*
X-7929101Y+4219381D01*
X-8249139Y+4219381D01*
X-8249139Y+4437819D01*
X-8080477Y+4437819D01*
X-7929625Y+4588671D01*
X-7101979Y+4588671D01*
X-6915719Y+4402411D01*
X-7740029Y+3236971D02*
X-7740029Y+3463029D01*
X-7259971Y+3463029D01*
X-7259971Y+3236971D01*
X-7740029Y+3236971D01*
X-7740029Y+4136971D02*
X-7740029Y+4363029D01*
X-7259971Y+4363029D01*
X-7259971Y+4136971D01*
X-7740029Y+4136971D01*
X-8795381Y+2639761D02*
X-8795381Y+2528239D01*
X-8866620Y+2457000D01*
X-8795381Y+2385761D01*
X-8795381Y+2274239D01*
X-8874239Y+2195381D01*
X-8985761Y+2195381D01*
X-9064619Y+2274239D01*
X-9064619Y+2385761D01*
X-8993380Y+2457000D01*
X-9064619Y+2528239D01*
X-9064619Y+2639761D01*
X-8985761Y+2718619D01*
X-8874239Y+2718619D01*
X-8795381Y+2639761D01*
X-7855461Y+1186481D02*
X-8124699Y+1186481D01*
X-8124699Y+1633519D01*
X-7855461Y+1633519D01*
X-7855461Y+1186481D01*
X-8485381Y+1519219D02*
X-8485381Y+1300781D01*
X-8754619Y+1300781D01*
X-8754619Y+1519219D01*
X-8485381Y+1519219D01*
X-6805386Y+1765621D02*
X-6805386Y+1706705D01*
X-6830786Y+1681305D01*
X-6830786Y+1643029D01*
X-6639971Y+1643029D01*
X-6639971Y+1416971D01*
X-6808881Y+1416971D01*
X-6808881Y+1364502D01*
X-7189033Y+984350D01*
X-8526066Y+984350D01*
X-8611357Y+1069641D01*
X-8754619Y+1069641D01*
X-8754619Y+1288079D01*
X-8485381Y+1288079D01*
X-8485381Y+1144817D01*
X-8467152Y+1126588D01*
X-7247947Y+1126588D01*
X-6957564Y+1416971D01*
X-7120029Y+1416971D01*
X-7120029Y+1643029D01*
X-6922224Y+1643029D01*
X-6922224Y+1681305D01*
X-6947624Y+1706705D01*
X-6947624Y+1765621D01*
X-6905963Y+1807282D01*
X-6847047Y+1807282D01*
X-6805386Y+1765621D01*
X-7750029Y+2316971D02*
X-7750029Y+2543029D01*
X-7269971Y+2543029D01*
X-7269971Y+2316971D01*
X-7750029Y+2316971D01*
X-7750029Y+1416971D02*
X-7750029Y+1643029D01*
X-7269971Y+1643029D01*
X-7269971Y+1416971D01*
X-7750029Y+1416971D01*
X-8583019Y+319044D02*
X-8583019Y+420956D01*
X-8510956Y+493019D01*
X-8409044Y+493019D01*
X-8336981Y+420956D01*
X-8336981Y+319044D01*
X-8409044Y+246981D01*
X-8510956Y+246981D01*
X-8583019Y+319044D01*
X-8329019Y+319044D02*
X-8329019Y+420956D01*
X-8256956Y+493019D01*
X-8155044Y+493019D01*
X-8082981Y+420956D01*
X-8082981Y+319044D01*
X-8155044Y+246981D01*
X-8256956Y+246981D01*
X-8329019Y+319044D01*
X-8075019Y+319044D02*
X-8075019Y+420956D01*
X-8002956Y+493019D01*
X-7901044Y+493019D01*
X-7828981Y+420956D01*
X-7828981Y+319044D01*
X-7901044Y+246981D01*
X-8002956Y+246981D01*
X-8075019Y+319044D01*
X-7821019Y+319044D02*
X-7821019Y+420956D01*
X-7748956Y+493019D01*
X-7647044Y+493019D01*
X-7574981Y+420956D01*
X-7574981Y+319044D01*
X-7647044Y+246981D01*
X-7748956Y+246981D01*
X-7821019Y+319044D01*
X-7567019Y+319044D02*
X-7567019Y+420956D01*
X-7494956Y+493019D01*
X-7393044Y+493019D01*
X-7320981Y+420956D01*
X-7320981Y+319044D01*
X-7393044Y+246981D01*
X-7494956Y+246981D01*
X-7567019Y+319044D01*
X-7313019Y+319044D02*
X-7313019Y+420956D01*
X-7240956Y+493019D01*
X-7139044Y+493019D01*
X-7066981Y+420956D01*
X-7066981Y+319044D01*
X-7139044Y+246981D01*
X-7240956Y+246981D01*
X-7313019Y+319044D01*
X-7059019Y+319044D02*
X-7059019Y+420956D01*
X-6986956Y+493019D01*
X-6885044Y+493019D01*
X-6812981Y+420956D01*
X-6812981Y+319044D01*
X-6885044Y+246981D01*
X-6986956Y+246981D01*
X-7059019Y+319044D01*
X-9195519Y+222445D02*
X-9195519Y+417555D01*
X-9057555Y+555519D01*
X-8862445Y+555519D01*
X-8724481Y+417555D01*
X-8724481Y+222445D01*
X-8862445Y+84481D01*
X-9057555Y+84481D01*
X-9195519Y+222445D01*
X-7453063Y+1302978D02*
X-7453063Y+1329280D01*
X-7434464Y+1347879D01*
X-7408162Y+1347879D01*
X-7389563Y+1329280D01*
X-7389563Y+1302978D01*
X-7408162Y+1284379D01*
X-7434464Y+1284379D01*
X-7453063Y+1302978D01*
X-6819514Y+910732D02*
X-6819514Y+937034D01*
X-6800915Y+955633D01*
X-6774613Y+955633D01*
X-6756014Y+937034D01*
X-6756014Y+910732D01*
X-6774613Y+892133D01*
X-6800915Y+892133D01*
X-6819514Y+910732D01*
X-6676786Y+3614750D02*
X-6676786Y+3641052D01*
X-6658187Y+3659651D01*
X-6631885Y+3659651D01*
X-6613286Y+3641052D01*
X-6613286Y+3614750D01*
X-6631885Y+3596151D01*
X-6658187Y+3596151D01*
X-6676786Y+3614750D01*
X-6676003Y+4013629D02*
X-6676003Y+4039931D01*
X-6657404Y+4058530D01*
X-6631102Y+4058530D01*
X-6612503Y+4039931D01*
X-6612503Y+4013629D01*
X-6631102Y+3995030D01*
X-6657404Y+3995030D01*
X-6676003Y+4013629D01*
X-6676633Y+4675972D02*
X-6676633Y+4702274D01*
X-6658034Y+4720873D01*
X-6631732Y+4720873D01*
X-6613133Y+4702274D01*
X-6613133Y+4675972D01*
X-6631732Y+4657373D01*
X-6658034Y+4657373D01*
X-6676633Y+4675972D01*
X-8780000Y+3717731D02*
X-8780000Y+4100000D01*
X-8780000Y+4482269D02*
X-8780000Y+4100000D01*
X-8397731Y+4100000D02*
X-8780000Y+4100000D01*
X-9162269Y+4100000D02*
X-8780000Y+4100000D01*
X-7500000Y+3236971D02*
X-7500000Y+3350000D01*
X-7500000Y+3463029D02*
X-7500000Y+3350000D01*
X-7259971Y+3350000D02*
X-7500000Y+3350000D01*
X-7740029Y+3350000D02*
X-7500000Y+3350000D01*
X-7500000Y+4136971D02*
X-7500000Y+4250000D01*
X-7500000Y+4363029D02*
X-7500000Y+4250000D01*
X-7259971Y+4250000D02*
X-7500000Y+4250000D01*
X-7740029Y+4250000D02*
X-7500000Y+4250000D01*
X-8930000Y+2995381D02*
X-8930000Y+3130000D01*
X-8795381Y+3130000D02*
X-8930000Y+3130000D01*
X-9064619Y+3130000D02*
X-8930000Y+3130000D01*
X-7855461Y+1410000D02*
X-7990080Y+1410000D01*
X-8124699Y+1410000D02*
X-7990080Y+1410000D01*
X-7990080Y+1633519D02*
X-7990080Y+1410000D01*
X-7990080Y+1186481D02*
X-7990080Y+1410000D01*
X-8620000Y+1519219D02*
X-8620000Y+1410000D01*
X-8620000Y+1300781D02*
X-8620000Y+1410000D01*
X-8754619Y+1410000D02*
X-8620000Y+1410000D01*
X-8485381Y+1410000D02*
X-8620000Y+1410000D01*
X-7510000Y+2316971D02*
X-7510000Y+2430000D01*
X-7510000Y+2543029D02*
X-7510000Y+2430000D01*
X-7269971Y+2430000D02*
X-7510000Y+2430000D01*
X-7750029Y+2430000D02*
X-7510000Y+2430000D01*
X-7510000Y+1416971D02*
X-7510000Y+1530000D01*
X-7510000Y+1643029D02*
X-7510000Y+1530000D01*
X-7269971Y+1530000D02*
X-7510000Y+1530000D01*
X-7750029Y+1530000D02*
X-7510000Y+1530000D01*
X-8583019Y+370000D02*
X-8460000Y+370000D01*
X-8336981Y+370000D02*
X-8460000Y+370000D01*
X-8460000Y+246981D02*
X-8460000Y+370000D01*
X-8460000Y+493019D02*
X-8460000Y+370000D01*
X-7567019Y+370000D02*
X-7444000Y+370000D01*
X-7320981Y+370000D02*
X-7444000Y+370000D01*
X-7444000Y+246981D02*
X-7444000Y+370000D01*
X-7444000Y+493019D02*
X-7444000Y+370000D01*
X-3274319Y+3649663D02*
X-2914035Y+3649663D01*
X-2866921Y+3602549D01*
X-3071039Y+3602549D01*
X-3071039Y+3518617D01*
X-3077211Y+3512445D01*
X-3128416Y+3512445D01*
X-3153816Y+3537845D01*
X-3212732Y+3537845D01*
X-3254393Y+3496184D01*
X-3254393Y+3437268D01*
X-3227083Y+3409958D01*
X-3238672Y+3409958D01*
X-3264072Y+3435358D01*
X-3322988Y+3435358D01*
X-3364649Y+3393697D01*
X-3364649Y+3334781D01*
X-3322988Y+3293120D01*
X-3264072Y+3293120D01*
X-3238672Y+3318520D01*
X-3153533Y+3318520D01*
X-3192595Y+3279458D01*
X-3192595Y+3220542D01*
X-3150934Y+3178881D01*
X-3092018Y+3178881D01*
X-3071039Y+3199860D01*
X-3071039Y+3167451D01*
X-2955719Y+3167451D01*
X-2955719Y+2993071D01*
X-2960730Y+2988060D01*
X-2974850Y+3002180D01*
X-3033766Y+3002180D01*
X-3075427Y+2960519D01*
X-3075427Y+2901603D01*
X-3071039Y+2897215D01*
X-3071039Y+2737451D01*
X-2748961Y+2737451D01*
X-2748961Y+2774281D01*
X-2659497Y+2774281D01*
X-2602620Y+2717404D01*
X-2602620Y+2547179D01*
X-2656519Y+2547179D01*
X-2656519Y+2379541D01*
X-2540837Y+2379541D01*
X-2511296Y+2350000D01*
X-3450000Y+2350000D01*
X-3450000Y+3650000D01*
X-3274656Y+3650000D01*
X-3274319Y+3649663D01*
X-3050357Y+2682434D02*
X-3050357Y+2660013D01*
X-3022893Y+2632549D01*
X-2983883Y+2632549D01*
X-2983883Y+2653908D01*
X-2942222Y+2695569D01*
X-2883306Y+2695569D01*
X-2841645Y+2653908D01*
X-2841645Y+2632549D01*
X-2748961Y+2632549D01*
X-2748961Y+2467451D01*
X-3071039Y+2467451D01*
X-3071039Y+2551383D01*
X-3101513Y+2581857D01*
X-3150934Y+2581857D01*
X-3192595Y+2623518D01*
X-3192595Y+2682434D01*
X-3150934Y+2724095D01*
X-3092018Y+2724095D01*
X-3050357Y+2682434D01*
X-2575719Y+3641063D02*
X-2575719Y+3429225D01*
X-2583998Y+3437504D01*
X-2642914Y+3437504D01*
X-2670460Y+3409958D01*
X-3139465Y+3409958D01*
X-3128416Y+3421007D01*
X-3039337Y+3421007D01*
X-3022893Y+3437451D01*
X-2748961Y+3437451D01*
X-2748961Y+3602549D01*
X-2769282Y+3602549D01*
X-2769282Y+3634222D01*
X-2785060Y+3650000D01*
X-2584656Y+3650000D01*
X-2575719Y+3641063D01*
X-2910000Y+2737451D02*
X-2910000Y+2820000D01*
X-2748961Y+2550000D02*
X-2815000Y+2550000D01*
X-2815000Y+2467451D02*
X-2815000Y+2550000D01*
X-2815000Y+2632549D02*
X-2815000Y+2550000D01*
X-2910000Y+3437451D02*
X-2910000Y+3520000D01*
X-2910000Y+3602549D02*
X-2910000Y+3520000D01*
X-4757949Y+3079041D02*
X-4757949Y+2651963D01*
X-4765290Y+2659304D01*
X-4824206Y+2659304D01*
X-4865867Y+2617643D01*
X-4865867Y+2558727D01*
X-4855089Y+2547949D01*
X-5144281Y+2547949D01*
X-5144281Y+2574696D01*
X-5259576Y+2689991D01*
X-5259576Y+2725912D01*
X-5301237Y+2767573D01*
X-5360153Y+2767573D01*
X-5382051Y+2745675D01*
X-5382051Y+3014281D01*
X-5374546Y+3014281D01*
X-5375202Y+3013625D01*
X-5375202Y+2954709D01*
X-5333541Y+2913048D01*
X-5274625Y+2913048D01*
X-5253554Y+2934119D01*
X-5253554Y+2910527D01*
X-5211893Y+2868866D01*
X-5154161Y+2868866D01*
X-5161916Y+2861111D01*
X-5161916Y+2802195D01*
X-5120255Y+2760534D01*
X-5061339Y+2760534D01*
X-5019678Y+2802195D01*
X-5019678Y+2861111D01*
X-5035453Y+2876886D01*
X-5035453Y+2958195D01*
X-5249309Y+3172051D01*
X-4757949Y+3172051D01*
X-4757949Y+3079041D01*
X-5382051Y+2980000D02*
X-5490000Y+2980000D01*
X-5382051Y+2820000D02*
X-5490000Y+2820000D01*
X-4757949Y+2900000D02*
X-4650000Y+2900000D01*
D14*
X-8780000Y+4100000D03*
D15*
X-8089120Y+3871400D03*
X-8089120Y+4328600D03*
D16*
X-7500000Y+3350000D03*
X-6870000Y+3350000D03*
X-7500000Y+4250000D03*
X-6870000Y+4250000D03*
D17*
X-6123360Y+4480000D03*
X-5910000Y+4480000D03*
D18*
X-5910000Y+4130000D03*
X-6090000Y+4130000D03*
D19*
X-5490000Y+3140000D03*
X-5490000Y+3060000D03*
X-5490000Y+2980000D03*
X-5490000Y+2900000D03*
X-5490000Y+2820000D03*
X-5490000Y+2740000D03*
X-5490000Y+2660000D03*
X-5490000Y+2580000D03*
D70*
X-5350000Y+2440000D03*
X-5270000Y+2440000D03*
X-5190000Y+2440000D03*
X-5110000Y+2440000D03*
X-5030000Y+2440000D03*
X-4950000Y+2440000D03*
X-4870000Y+2440000D03*
X-4790000Y+2440000D03*
D19*
X-4650000Y+2580000D03*
X-4650000Y+2660000D03*
X-4650000Y+2740000D03*
X-4650000Y+2820000D03*
X-4650000Y+2900000D03*
X-4650000Y+2980000D03*
X-4650000Y+3060000D03*
X-4650000Y+3140000D03*
D70*
X-4790000Y+3280000D03*
X-4870000Y+3280000D03*
X-4950000Y+3280000D03*
X-5030000Y+3280000D03*
X-5110000Y+3280000D03*
X-5190000Y+3280000D03*
X-5270000Y+3280000D03*
X-5350000Y+3280000D03*
D71*
X-5700000Y+2900000D03*
X-5700000Y+2686640D03*
X-5700000Y+2296640D03*
X-5700000Y+2510000D03*
D20*
X-6120000Y+2330000D03*
X-6120000Y+2838000D03*
D21*
X-2070000Y+3372480D03*
X-2070000Y+2976240D03*
X-2070000Y+2580000D03*
D20*
X-8930000Y+3130000D03*
X-8930000Y+3384000D03*
X-8930000Y+2330000D03*
X-8930000Y+2584000D03*
D22*
X-2830000Y+3940000D03*
X-2830000Y+4194000D03*
X-2830000Y+4448000D03*
X-2550000Y+3940000D03*
X-2550000Y+4194000D03*
X-2550000Y+4448000D03*
X-2270000Y+3940000D03*
X-2270000Y+4194000D03*
X-2270000Y+4448000D03*
D23*
X-2815000Y+2820000D03*
X-2910000Y+2820000D03*
X-3005000Y+2820000D03*
X-3005000Y+2550000D03*
X-2910000Y+2550000D03*
X-2815000Y+2550000D03*
X-2815000Y+3520000D03*
X-2910000Y+3520000D03*
X-3005000Y+3520000D03*
X-3005000Y+3250000D03*
X-2910000Y+3250000D03*
X-2815000Y+3250000D03*
D24*
X-3050000Y+1877000D03*
X-3050000Y+1750000D03*
X-3050000Y+1623000D03*
X-3050000Y+1496000D03*
X-2510000Y+1496000D03*
X-2510000Y+1623000D03*
X-2510000Y+1750000D03*
X-2510000Y+1877000D03*
X-1920000Y+1877000D03*
X-1920000Y+1750000D03*
X-1920000Y+1623000D03*
X-1920000Y+1496000D03*
X-1380000Y+1496000D03*
X-1380000Y+1623000D03*
X-1380000Y+1750000D03*
X-1380000Y+1877000D03*
X-4100000Y+1884000D03*
X-4100000Y+1757000D03*
X-4100000Y+1630000D03*
X-4100000Y+1503000D03*
X-3560000Y+1503000D03*
X-3560000Y+1630000D03*
X-3560000Y+1757000D03*
X-3560000Y+1884000D03*
X-4110000Y+3044000D03*
X-4110000Y+2917000D03*
X-4110000Y+2790000D03*
X-4110000Y+2663000D03*
X-3570000Y+2663000D03*
X-3570000Y+2790000D03*
X-3570000Y+2917000D03*
X-3570000Y+3044000D03*
D25*
X-4855000Y+5008000D03*
D26*
X-5655000Y+5008000D03*
D17*
X-1710000Y+2080000D03*
X-1923360Y+2080000D03*
D71*
X-2210000Y+1666640D03*
X-2210000Y+1880000D03*
D27*
X-3931920Y+3706520D03*
X-3931920Y+3612540D03*
X-3931920Y+3516020D03*
X-3693160Y+3516020D03*
X-3693160Y+3610000D03*
X-3693160Y+3706520D03*
D28*
X-8620000Y+1641140D03*
D29*
X-7990080Y+1410000D03*
D28*
X-8620000Y+1410000D03*
X-8620000Y+1178860D03*
D16*
X-7510000Y+2430000D03*
X-6880000Y+2430000D03*
X-7510000Y+1530000D03*
X-6880000Y+1530000D03*
D18*
X-5910000Y+3380000D03*
X-6090000Y+3380000D03*
D17*
X-6123360Y+3730000D03*
X-5910000Y+3730000D03*
X-2346640Y+2080000D03*
X-2560000Y+2080000D03*
D71*
X-2560000Y+2250000D03*
X-2560000Y+2463360D03*
X-4290000Y+3123360D03*
X-4290000Y+2910000D03*
D17*
X-3950000Y+2490000D03*
X-3736640Y+2490000D03*
X-3736640Y+2290000D03*
X-3950000Y+2290000D03*
X-3953360Y+2090000D03*
X-3740000Y+2090000D03*
X-4770000Y+1990000D03*
X-4556640Y+1990000D03*
X-4760000Y+1680000D03*
X-4546640Y+1680000D03*
X-4770000Y+1360000D03*
X-4556640Y+1360000D03*
X-5270000Y+1990000D03*
X-5056640Y+1990000D03*
X-5270000Y+1680000D03*
X-5056640Y+1680000D03*
X-5270000Y+1360000D03*
X-5056640Y+1360000D03*
D71*
X-6330000Y+4266640D03*
X-6330000Y+4480000D03*
D17*
X-3786640Y+4460000D03*
X-4000000Y+4460000D03*
X-3330000Y+4460000D03*
X-3543360Y+4460000D03*
X-3790000Y+4150000D03*
X-4003360Y+4150000D03*
X-4950000Y+3500000D03*
X-4736640Y+3500000D03*
X-4950000Y+3810000D03*
X-4736640Y+3810000D03*
D22*
X-6300000Y+1200000D03*
X-6046000Y+1200000D03*
X-6300000Y+1780000D03*
X-6046000Y+1780000D03*
D17*
X-6300000Y+1560000D03*
X-6086640Y+1560000D03*
D71*
X-5680000Y+1560000D03*
X-5680000Y+1773360D03*
D72*
X-8460000Y+370000D03*
X-8206000Y+370000D03*
X-7952000Y+370000D03*
X-7698000Y+370000D03*
X-7444000Y+370000D03*
X-7190000Y+370000D03*
X-6936000Y+370000D03*
X-6682000Y+370000D03*
X-6428000Y+370000D03*
X-6174000Y+370000D03*
X-5920000Y+370000D03*
X-5666000Y+370000D03*
X-5412000Y+370000D03*
X-5158000Y+370000D03*
X-4904000Y+370000D03*
X-4650000Y+370000D03*
D73*
X-8960000Y+320000D03*
X-8960000Y-2780000D03*
X-1460000Y+320000D03*
X-1460000Y-2780000D03*
D30*
X-9000000Y+5150000D03*
X-1400000Y+5150000D03*
D31*
X-9460000Y-140000D02*
X-990000Y-140000D01*
X-990000Y+5530000D01*
X-9460000Y+5530000D01*
X-9460000Y-140000D01*
M02*
