G04 PROTEUS RS274X GERBER FILE*
%FSLAX45Y45*%
%MOMM*%
G01*
%ADD40C,1.016000*%
%ADD49C,2.286000*%
%ADD50C,3.556000*%
%AMPPAD045*
4,1,36,
-1.143000,-1.016000,
-1.143000,1.016000,
-1.140470,1.041970,
-1.133200,1.065980,
-1.121650,1.087580,
-1.106290,1.106290,
-1.087570,1.121650,
-1.065980,1.133200,
-1.041970,1.140470,
-1.016000,1.143000,
1.016000,1.143000,
1.041970,1.140470,
1.065980,1.133200,
1.087570,1.121650,
1.106290,1.106290,
1.121650,1.087580,
1.133200,1.065980,
1.140470,1.041970,
1.143000,1.016000,
1.143000,-1.016000,
1.140470,-1.041970,
1.133200,-1.065980,
1.121650,-1.087580,
1.106290,-1.106290,
1.087570,-1.121650,
1.065980,-1.133200,
1.041970,-1.140470,
1.016000,-1.143000,
-1.016000,-1.143000,
-1.041970,-1.140470,
-1.065980,-1.133200,
-1.087570,-1.121650,
-1.106290,-1.106290,
-1.121650,-1.087580,
-1.133200,-1.065980,
-1.140470,-1.041970,
-1.143000,-1.016000,
0*%
%ADD51PPAD045*%
%AMPPAD053*
4,1,4,
-0.350000,-0.950000,
0.350000,-0.950000,
0.350000,0.950000,
-0.350000,0.950000,
-0.350000,-0.950000,
0*%
%ADD59PPAD053*%
%AMPPAD054*
4,1,4,
-0.850000,-0.900000,
0.850000,-0.900000,
0.850000,0.900000,
-0.850000,0.900000,
-0.850000,-0.900000,
0*%
%ADD60PPAD054*%
%AMPPAD055*
4,1,4,
-0.700000,-1.300000,
0.700000,-1.300000,
0.700000,1.300000,
-0.700000,1.300000,
-0.700000,-1.300000,
0*%
%ADD61PPAD055*%
%ADD25C,0.960000*%
%ADD26C,0.500000*%
%AMPPAD051*
4,1,36,
-1.016000,1.143000,
1.016000,1.143000,
1.041970,1.140470,
1.065980,1.133200,
1.087580,1.121650,
1.106290,1.106290,
1.121650,1.087570,
1.133200,1.065980,
1.140470,1.041970,
1.143000,1.016000,
1.143000,-1.016000,
1.140470,-1.041970,
1.133200,-1.065980,
1.121650,-1.087570,
1.106290,-1.106290,
1.087580,-1.121650,
1.065980,-1.133200,
1.041970,-1.140470,
1.016000,-1.143000,
-1.016000,-1.143000,
-1.041970,-1.140470,
-1.065980,-1.133200,
-1.087580,-1.121650,
-1.106290,-1.106290,
-1.121650,-1.087570,
-1.133200,-1.065980,
-1.140470,-1.041970,
-1.143000,-1.016000,
-1.143000,1.016000,
-1.140470,1.041970,
-1.133200,1.065980,
-1.121650,1.087570,
-1.106290,1.106290,
-1.087580,1.121650,
-1.065980,1.133200,
-1.041970,1.140470,
-1.016000,1.143000,
0*%
%ADD57PPAD051*%
%ADD72C,1.800000*%
%ADD73C,4.050000*%
%ADD58C,4.508000*%
%ADD31C,0.203200*%
D40*
X-4900000Y+1990000D03*
X-4900000Y+1680000D03*
X-4900000Y+1360000D03*
X-4794748Y+2588185D03*
X-1728568Y+1630476D03*
X-2686372Y+1639569D03*
X-3740262Y+2906188D03*
X-2200000Y+1500000D03*
X-2837980Y+1497932D03*
X-4265049Y+2655765D03*
X-3121476Y+2652976D03*
X-4850000Y+3500000D03*
X-3121476Y+3250000D03*
X-3800000Y+3500000D03*
X-3004308Y+2931061D03*
X-4851917Y+3807813D03*
X-3183274Y+3466726D03*
X-3550000Y+3572798D03*
X-2908213Y+2940000D03*
X-2912764Y+2624450D03*
X-4280000Y+2780000D03*
X-3293530Y+3364239D03*
X-2613456Y+3366385D03*
X-3733245Y+1496384D03*
X-3734425Y+1639569D03*
X-3736084Y+1637910D03*
X-4266331Y+1488022D03*
X-3670905Y+4149953D03*
X-4540685Y+3415995D03*
X-4540593Y+3643875D03*
X-6336064Y+4638148D03*
X-6122591Y+4641435D03*
X-6865114Y+4464948D03*
X-3925154Y+3819253D03*
X-5269990Y+3504046D03*
X-5636004Y+3249840D03*
X-6876505Y+1736163D03*
X-5090797Y+2831653D03*
X-5182435Y+2939985D03*
X-5304083Y+2984167D03*
X-7421313Y+1316129D03*
X-5356295Y+2383548D03*
X-6005974Y+3838715D03*
X-5341123Y+2586619D03*
X-5330695Y+2696454D03*
X-6787764Y+923883D03*
X-6629515Y+3077872D03*
X-6216477Y+3377910D03*
X-6645036Y+3627901D03*
X-6258897Y+4133135D03*
X-6644253Y+4026780D03*
X-6644883Y+4689123D03*
X-4235184Y+3901058D03*
X-5605831Y+2990486D03*
X-4545851Y+2661570D03*
X-6450000Y+1550000D03*
X-4269818Y+4735797D03*
X-4469502Y+3236816D03*
X-4516849Y+2549453D03*
X-5922580Y+3897649D03*
X-6428834Y+3913696D03*
X-4369579Y+3381777D03*
X-3934903Y+3367215D03*
D49*
X-6120000Y+2330000D03*
X-6120000Y+2838000D03*
D50*
X-2070000Y+3372480D03*
X-2070000Y+2976240D03*
X-2070000Y+2580000D03*
D49*
X-8930000Y+3130000D03*
X-8930000Y+3384000D03*
X-8930000Y+2330000D03*
X-8930000Y+2584000D03*
D51*
X-2830000Y+3940000D03*
X-2830000Y+4194000D03*
X-2830000Y+4448000D03*
X-2550000Y+3940000D03*
X-2550000Y+4194000D03*
X-2550000Y+4448000D03*
X-2270000Y+3940000D03*
X-2270000Y+4194000D03*
X-2270000Y+4448000D03*
D59*
X-4935000Y+3942000D03*
X-5045000Y+3942000D03*
X-5155000Y+3942000D03*
X-5265000Y+3942000D03*
X-5375000Y+3942000D03*
X-5485000Y+3942000D03*
X-5595000Y+3942000D03*
X-5705000Y+3942000D03*
X-5815000Y+3942000D03*
D60*
X-5970000Y+4048000D03*
X-4420000Y+4048000D03*
D61*
X-5945000Y+5008000D03*
X-4375000Y+5008000D03*
D25*
X-4855000Y+5008000D03*
D26*
X-5655000Y+5008000D03*
D57*
X-6300000Y+1200000D03*
X-6046000Y+1200000D03*
X-6300000Y+1780000D03*
X-6046000Y+1780000D03*
D72*
X-8460000Y+370000D03*
X-8206000Y+370000D03*
X-7952000Y+370000D03*
X-7698000Y+370000D03*
X-7444000Y+370000D03*
X-7190000Y+370000D03*
X-6936000Y+370000D03*
X-6682000Y+370000D03*
X-6428000Y+370000D03*
X-6174000Y+370000D03*
X-5920000Y+370000D03*
X-5666000Y+370000D03*
X-5412000Y+370000D03*
X-5158000Y+370000D03*
X-4904000Y+370000D03*
X-4650000Y+370000D03*
D73*
X-8960000Y+320000D03*
X-8960000Y-2780000D03*
X-1460000Y+320000D03*
X-1460000Y-2780000D03*
D58*
X-9000000Y+5150000D03*
X-1400000Y+5150000D03*
D31*
X-9460000Y-140000D02*
X-990000Y-140000D01*
X-990000Y+5530000D01*
X-9460000Y+5530000D01*
X-9460000Y-140000D01*
M02*
