G04 PROTEUS RS274X GERBER FILE*
%FSLAX45Y45*%
%MOMM*%
G01*
%ADD14R,6.985000X6.985000*%
%ADD15R,2.540000X1.524000*%
%ADD16R,4.140200X1.600200*%
%ADD17R,1.016000X1.270000*%
%ADD18R,0.990600X1.397000*%
%ADD19R,1.498600X0.558800*%
%ADD70R,0.558800X1.498600*%
%ADD71R,1.270000X1.016000*%
%ADD23R,0.660400X0.990600*%
%ADD24R,1.549400X0.609600*%
%ADD27R,0.635000X0.508000*%
%ADD28R,2.032000X1.524000*%
%ADD29R,2.032000X3.810000*%
%ADD31C,0.203200*%
D14*
X-8780000Y+4100000D03*
D15*
X-8089120Y+3871400D03*
X-8089120Y+4328600D03*
D16*
X-7500000Y+3350000D03*
X-6870000Y+3350000D03*
X-7500000Y+4250000D03*
X-6870000Y+4250000D03*
D17*
X-6123360Y+4480000D03*
X-5910000Y+4480000D03*
D18*
X-5910000Y+4130000D03*
X-6090000Y+4130000D03*
D19*
X-5490000Y+3140000D03*
X-5490000Y+3060000D03*
X-5490000Y+2980000D03*
X-5490000Y+2900000D03*
X-5490000Y+2820000D03*
X-5490000Y+2740000D03*
X-5490000Y+2660000D03*
X-5490000Y+2580000D03*
D70*
X-5350000Y+2440000D03*
X-5270000Y+2440000D03*
X-5190000Y+2440000D03*
X-5110000Y+2440000D03*
X-5030000Y+2440000D03*
X-4950000Y+2440000D03*
X-4870000Y+2440000D03*
X-4790000Y+2440000D03*
D19*
X-4650000Y+2580000D03*
X-4650000Y+2660000D03*
X-4650000Y+2740000D03*
X-4650000Y+2820000D03*
X-4650000Y+2900000D03*
X-4650000Y+2980000D03*
X-4650000Y+3060000D03*
X-4650000Y+3140000D03*
D70*
X-4790000Y+3280000D03*
X-4870000Y+3280000D03*
X-4950000Y+3280000D03*
X-5030000Y+3280000D03*
X-5110000Y+3280000D03*
X-5190000Y+3280000D03*
X-5270000Y+3280000D03*
X-5350000Y+3280000D03*
D71*
X-5700000Y+2900000D03*
X-5700000Y+2686640D03*
X-5700000Y+2296640D03*
X-5700000Y+2510000D03*
D23*
X-2815000Y+2820000D03*
X-2910000Y+2820000D03*
X-3005000Y+2820000D03*
X-3005000Y+2550000D03*
X-2910000Y+2550000D03*
X-2815000Y+2550000D03*
X-2815000Y+3520000D03*
X-2910000Y+3520000D03*
X-3005000Y+3520000D03*
X-3005000Y+3250000D03*
X-2910000Y+3250000D03*
X-2815000Y+3250000D03*
D24*
X-3050000Y+1877000D03*
X-3050000Y+1750000D03*
X-3050000Y+1623000D03*
X-3050000Y+1496000D03*
X-2510000Y+1496000D03*
X-2510000Y+1623000D03*
X-2510000Y+1750000D03*
X-2510000Y+1877000D03*
X-1920000Y+1877000D03*
X-1920000Y+1750000D03*
X-1920000Y+1623000D03*
X-1920000Y+1496000D03*
X-1380000Y+1496000D03*
X-1380000Y+1623000D03*
X-1380000Y+1750000D03*
X-1380000Y+1877000D03*
X-4100000Y+1884000D03*
X-4100000Y+1757000D03*
X-4100000Y+1630000D03*
X-4100000Y+1503000D03*
X-3560000Y+1503000D03*
X-3560000Y+1630000D03*
X-3560000Y+1757000D03*
X-3560000Y+1884000D03*
X-4110000Y+3044000D03*
X-4110000Y+2917000D03*
X-4110000Y+2790000D03*
X-4110000Y+2663000D03*
X-3570000Y+2663000D03*
X-3570000Y+2790000D03*
X-3570000Y+2917000D03*
X-3570000Y+3044000D03*
D17*
X-1710000Y+2080000D03*
X-1923360Y+2080000D03*
D71*
X-2210000Y+1666640D03*
X-2210000Y+1880000D03*
D27*
X-3931920Y+3706520D03*
X-3931920Y+3612540D03*
X-3931920Y+3516020D03*
X-3693160Y+3516020D03*
X-3693160Y+3610000D03*
X-3693160Y+3706520D03*
D28*
X-8620000Y+1641140D03*
D29*
X-7990080Y+1410000D03*
D28*
X-8620000Y+1410000D03*
X-8620000Y+1178860D03*
D16*
X-7510000Y+2430000D03*
X-6880000Y+2430000D03*
X-7510000Y+1530000D03*
X-6880000Y+1530000D03*
D18*
X-5910000Y+3380000D03*
X-6090000Y+3380000D03*
D17*
X-6123360Y+3730000D03*
X-5910000Y+3730000D03*
X-2346640Y+2080000D03*
X-2560000Y+2080000D03*
D71*
X-2560000Y+2250000D03*
X-2560000Y+2463360D03*
X-4290000Y+3123360D03*
X-4290000Y+2910000D03*
D17*
X-3950000Y+2490000D03*
X-3736640Y+2490000D03*
X-3736640Y+2290000D03*
X-3950000Y+2290000D03*
X-3953360Y+2090000D03*
X-3740000Y+2090000D03*
X-4770000Y+1990000D03*
X-4556640Y+1990000D03*
X-4760000Y+1680000D03*
X-4546640Y+1680000D03*
X-4770000Y+1360000D03*
X-4556640Y+1360000D03*
X-5270000Y+1990000D03*
X-5056640Y+1990000D03*
X-5270000Y+1680000D03*
X-5056640Y+1680000D03*
X-5270000Y+1360000D03*
X-5056640Y+1360000D03*
D71*
X-6330000Y+4266640D03*
X-6330000Y+4480000D03*
D17*
X-3786640Y+4460000D03*
X-4000000Y+4460000D03*
X-3330000Y+4460000D03*
X-3543360Y+4460000D03*
X-3790000Y+4150000D03*
X-4003360Y+4150000D03*
X-4950000Y+3500000D03*
X-4736640Y+3500000D03*
X-4950000Y+3810000D03*
X-4736640Y+3810000D03*
X-6300000Y+1560000D03*
X-6086640Y+1560000D03*
D71*
X-5680000Y+1560000D03*
X-5680000Y+1773360D03*
D31*
X-9460000Y-140000D02*
X-990000Y-140000D01*
X-990000Y+5530000D01*
X-9460000Y+5530000D01*
X-9460000Y-140000D01*
M02*
