M48
METRIC,TZ
T01C0.3810
T02C0.7620
T03C1.7780
T04C1.0160
T05C1.9200
T06C1.0000
T07C1.2000
T08C2.7000
T09C3.5000
%
T01
X-49000Y+19900
X-49000Y+16800
X-49000Y+13600
X-47947Y+25882
X-17286Y+16305
X-26864Y+16396
X-37403Y+29062
X-22000Y+15000
X-28380Y+14979
X-42650Y+26558
X-31215Y+26530
X-48500Y+35000
X-31215Y+32500
X-38000Y+35000
X-30043Y+29311
X-48519Y+38078
X-31833Y+34667
X-35500Y+35728
X-29082Y+29400
X-29128Y+26244
X-42800Y+27800
X-32935Y+33642
X-26135Y+33664
X-37332Y+14964
X-37344Y+16396
X-37361Y+16379
X-42663Y+14880
X-36709Y+41500
X-45407Y+34160
X-45406Y+36439
X-63361Y+46381
X-61226Y+46414
X-68651Y+44649
X-39252Y+38193
X-52700Y+35040
X-56360Y+32498
X-68765Y+17362
X-50908Y+28317
X-51824Y+29400
X-53041Y+29842
X-74213Y+13161
X-53563Y+23835
X-60060Y+38387
X-53411Y+25866
X-53307Y+26965
X-67878Y+9239
X-66295Y+30779
X-62165Y+33779
X-66450Y+36279
X-62589Y+41331
X-66443Y+40268
X-66449Y+46891
X-42352Y+39011
X-56058Y+29905
X-45459Y+26616
X-64500Y+15500
X-42698Y+47358
X-44695Y+32368
X-45168Y+25495
X-59226Y+38976
X-64288Y+39137
X-43696Y+33818
X-39349Y+33672
T02
X-61200Y+23300
X-61200Y+28380
T03
X-20700Y+33725
X-20700Y+29762
X-20700Y+25800
T04
X-89300Y+31300
X-89300Y+33840
X-89300Y+23300
X-89300Y+25840
X-28300Y+39400
X-28300Y+41940
X-28300Y+44480
X-25500Y+39400
X-25500Y+41940
X-25500Y+44480
X-22700Y+39400
X-22700Y+41940
X-22700Y+44480
X-63000Y+12000
X-60460Y+12000
X-63000Y+17800
X-60460Y+17800
T05
X-48550Y+50080
T06
X-56550Y+50080
T07
X-84600Y+3700
X-82060Y+3700
X-79520Y+3700
X-76980Y+3700
X-74440Y+3700
X-71900Y+3700
X-69360Y+3700
X-66820Y+3700
X-64280Y+3700
X-61740Y+3700
X-59200Y+3700
X-56660Y+3700
X-54120Y+3700
X-51580Y+3700
X-49040Y+3700
X-46500Y+3700
T08
X-89600Y+3200
X-89600Y-27800
X-14600Y+3200
X-14600Y-27800
T09
X-90000Y+51500
X-14000Y+51500
M30
